<svg width="292" height="569" viewBox="0 0 292 569" fill="none" xmlns="http://www.w3.org/2000/svg">
<g opacity="0.8">
<path d="M284.562 115.938H259.865C259.201 115.938 255.546 114.205 255.546 112.066V99.7657C255.427 90.4622 289.399 89.8532 289.527 99.7657V112.066C289.528 114.205 286.948 115.938 284.562 115.938Z" fill="#E6E6E6"/>
<path d="M285.84 91.4282C284.642 91.0439 283.37 90.8804 282.1 90.9475C282.439 90.8468 282.751 90.6828 283.016 90.4664C282.783 90.458 282.553 90.4301 282.326 90.3831C282.077 90.3411 281.842 90.2469 281.641 90.1082C281.541 90.0378 281.463 89.9464 281.413 89.842C281.362 89.7377 281.342 89.6238 281.353 89.5106C281.4 89.2293 281.693 88.9977 281.663 88.7146C281.628 88.3902 281.211 88.2323 280.987 87.9753C280.851 87.7816 280.789 87.5534 280.81 87.3253C280.831 87.0971 280.935 86.8814 281.105 86.7107C281.317 86.489 281.577 86.3079 281.869 86.1781C281.376 86.0646 280.858 86.0713 280.369 86.1976C280.626 86.0196 280.818 85.7782 280.924 85.5031C281.029 85.2281 281.042 84.9314 280.962 84.6496C280.825 84.2967 280.594 83.9793 280.289 83.7254C279.983 83.4716 279.612 83.2891 279.21 83.194C278.402 83.0117 277.567 82.9512 276.738 83.0151C277.443 82.8209 277.336 81.8308 276.797 81.3794C276.259 80.928 275.488 80.7396 274.98 80.2604C274.472 79.7812 274.513 78.7583 275.245 78.6788L275.155 78.4453C274.777 78.3187 274.373 78.2664 273.97 78.292C273.567 78.3175 273.175 78.4204 272.821 78.5936C272.466 78.7667 272.157 79.0062 271.915 79.2956C271.673 79.5851 271.503 79.9179 271.416 80.2715C271.282 81.0207 271.532 81.8494 271.113 82.5085C270.578 83.3488 269.281 83.4439 268.207 83.3508C267.152 83.1083 266.034 83.2452 265.09 83.7321C264.797 83.9514 264.586 84.2473 264.489 84.5786C264.392 84.9099 264.412 85.2602 264.547 85.5807C264.682 85.9012 264.925 86.1761 265.242 86.367C265.56 86.5579 265.935 86.6554 266.317 86.646C265.611 86.6504 264.907 86.7336 264.224 86.8938L264.882 87.1226C265.029 87.1632 265.164 87.2313 265.279 87.3223C265.335 87.3689 265.374 87.43 265.39 87.4973C265.406 87.5645 265.398 87.6345 265.367 87.6975C265.262 87.8687 264.99 87.8628 264.774 87.8337L263.343 87.6406C263.419 87.6636 263.49 87.7018 263.548 87.7522C263.606 87.8027 263.651 87.8643 263.68 87.9324C263.708 88.0005 263.719 88.0734 263.712 88.1458C263.705 88.2182 263.68 88.2882 263.638 88.3508C263.597 88.4134 263.541 88.4669 263.474 88.5074C263.406 88.548 263.33 88.5745 263.249 88.5851C263.169 88.5956 263.087 88.5899 263.01 88.5685C262.933 88.547 262.861 88.5103 262.802 88.461C262.949 88.6149 263.067 88.7892 263.152 88.9771C263.193 89.0715 263.209 89.1734 263.197 89.2743C263.186 89.3753 263.147 89.4722 263.085 89.5571C262.943 89.6738 262.764 89.7477 262.573 89.7686C262.382 89.7895 262.188 89.7562 262.019 89.6735C261.903 89.6333 261.785 89.5865 261.667 89.5437C261.67 89.5808 261.673 89.618 261.678 89.6553C261.717 89.8992 261.812 90.1332 261.957 90.3423C262.103 90.5514 262.295 90.7311 262.522 90.87C261.873 90.9378 261.276 91.22 260.846 91.6615C260.483 92.0655 260.276 92.5641 260.256 93.0824C260.237 93.6008 260.405 94.1109 260.736 94.5363C260.013 94.2499 259.222 94.1324 258.435 94.1946C258.044 94.2377 257.685 94.408 257.425 94.673C257.165 94.9381 257.023 95.2795 257.025 95.6324C257.156 96.5272 258.392 96.8544 259.39 96.9653C267.245 97.8321 275.189 97.8312 283.043 96.9628C284.11 96.8981 285.155 96.6598 286.127 96.2594C286.611 96.0542 287.029 95.7427 287.342 95.3539C287.656 94.9651 287.854 94.5116 287.92 94.0355C287.899 93.4653 287.691 92.9134 287.321 92.4494C286.95 91.9853 286.435 91.63 285.84 91.4282Z" fill="#DBB0FD"/>
<path d="M291.67 101.794C291.584 101.456 291.371 101.154 291.067 100.939C290.764 100.724 290.388 100.607 290.001 100.609C289.242 100.627 288.563 101.113 287.818 101.006C287.199 100.918 286.713 100.434 286.09 100.508C285.52 100.575 285.213 101.075 284.788 101.344H283.696C283.27 101.044 283.062 100.436 282.472 100.265C281.584 100.009 280.871 100.907 279.941 101.066C279.402 101.12 278.858 101.027 278.38 100.799C277.911 100.571 277.403 100.416 276.876 100.342C276.644 100.311 276.407 100.339 276.193 100.424C275.978 100.508 275.795 100.646 275.664 100.82C275.692 100.565 275.324 100.316 274.95 100.3C274.532 100.314 274.125 100.426 273.771 100.626C273.415 100.825 273.004 100.931 272.584 100.93C271.655 100.857 271.199 99.8837 270.265 99.8731C269.089 99.8598 268.618 101.362 267.455 101.234C266.85 101.167 266.524 100.675 265.984 100.464C265.412 100.307 264.801 100.301 264.225 100.449L261.474 100.911C260.668 101.11 259.817 101.118 259.007 100.932C258.417 100.741 257.844 100.326 257.235 100.484C256.705 100.622 256.446 101.154 255.885 101.182C255.527 101.141 255.181 101.035 254.87 100.87C254.579 100.778 254.264 100.765 253.965 100.832C253.666 100.9 253.396 101.045 253.188 101.25C252.88 102.375 252.831 103.545 253.042 104.687C253.033 104.931 253.055 105.175 253.106 105.414L255.873 115.341C256.198 116.864 257.038 117.965 258.767 117.965H285.66C286.499 117.965 287.311 117.703 287.957 117.224C288.603 116.745 289.042 116.079 289.2 115.341L291.967 105.414C291.973 105.388 291.976 105.363 291.981 105.337C292.047 104.149 291.942 102.958 291.67 101.794Z" fill="#F78888"/>
<path opacity="0.2" d="M258.789 101.047L259.327 107.313C259.506 109.402 259.241 111.461 259.42 113.55C259.521 114.727 260.066 115.932 260.167 117.108C260.179 117.247 260.422 117.248 260.41 117.108L259.872 110.842L259.334 104.576L259.031 101.047C259.019 100.908 258.777 100.907 258.789 101.047L258.789 101.047Z" fill="black"/>
<path opacity="0.2" d="M263.46 101.295L263.669 107.47L263.879 113.645L263.996 117.111C264.001 117.251 264.243 117.251 264.238 117.111L264.029 110.937L263.819 104.762L263.702 101.295C263.697 101.156 263.455 101.155 263.46 101.295Z" fill="black"/>
<path opacity="0.2" d="M267.984 101.666L267.921 107.633L267.857 113.564L267.821 116.928C267.822 116.956 267.836 116.983 267.858 117.002C267.881 117.022 267.911 117.033 267.942 117.033C267.974 117.033 268.004 117.022 268.027 117.002C268.049 116.983 268.062 116.956 268.063 116.928L268.127 110.96L268.19 105.029L268.226 101.666C268.225 101.637 268.212 101.611 268.19 101.591C268.167 101.571 268.137 101.561 268.105 101.561C268.074 101.561 268.044 101.571 268.021 101.591C267.999 101.611 267.985 101.637 267.984 101.666Z" fill="black"/>
<path opacity="0.2" d="M271.403 101.483L271.535 107.524L271.667 113.529L271.741 116.93C271.742 116.958 271.756 116.985 271.778 117.004C271.801 117.024 271.831 117.035 271.862 117.035C271.894 117.035 271.924 117.024 271.947 117.004C271.969 116.985 271.982 116.958 271.984 116.93L271.851 110.889L271.719 104.884L271.645 101.483C271.644 101.455 271.63 101.428 271.608 101.409C271.585 101.389 271.555 101.378 271.524 101.378C271.492 101.378 271.462 101.389 271.439 101.409C271.417 101.428 271.404 101.455 271.403 101.483Z" fill="black"/>
<path opacity="0.2" d="M276.384 101.235L276.536 107.437L276.687 113.639L276.772 117.111C276.773 117.139 276.786 117.166 276.809 117.185C276.831 117.205 276.862 117.216 276.893 117.216C276.924 117.216 276.955 117.205 276.977 117.185C277 117.166 277.013 117.139 277.014 117.111L276.862 110.909L276.711 104.706L276.626 101.235C276.625 101.206 276.612 101.18 276.589 101.16C276.567 101.141 276.537 101.13 276.505 101.13C276.474 101.13 276.443 101.141 276.421 101.16C276.398 101.18 276.385 101.206 276.384 101.235Z" fill="black"/>
<path opacity="0.2" d="M280.519 101.423L281.047 107.672L281.574 113.904L281.871 117.416C281.883 117.554 282.125 117.555 282.113 117.416L281.585 111.166L281.058 104.935L280.762 101.423C280.75 101.285 280.508 101.284 280.519 101.423Z" fill="black"/>
<path opacity="0.2" d="M285.114 102.151L285.433 107.869C285.539 109.775 284.999 111.681 285.106 113.587L285.284 116.798C285.292 116.937 285.534 116.938 285.527 116.798C285.42 114.892 285.96 112.986 285.854 111.08L285.535 105.362L285.357 102.151C285.349 102.012 285.107 102.011 285.114 102.151Z" fill="black"/>
<path d="M271.084 86.4853C271.596 86.4853 272.012 86.2261 272.012 85.9063C272.012 85.5866 271.596 85.3274 271.084 85.3274C270.571 85.3274 270.155 85.5866 270.155 85.9063C270.155 86.2261 270.571 86.4853 271.084 86.4853Z" fill="#E6E6E6"/>
<path d="M276.976 87.7878C277.489 87.7878 277.904 87.5286 277.904 87.2088C277.904 86.8891 277.489 86.6299 276.976 86.6299C276.463 86.6299 276.048 86.8891 276.048 87.2088C276.048 87.5286 276.463 87.7878 276.976 87.7878Z" fill="#3F3D56"/>
<path d="M268.743 90.6098C269.255 90.6098 269.671 90.3506 269.671 90.0308C269.671 89.7111 269.255 89.4519 268.743 89.4519C268.23 89.4519 267.815 89.7111 267.815 90.0308C267.815 90.3506 268.23 90.6098 268.743 90.6098Z" fill="#FF6584"/>
<path d="M276.419 91.3729C276.743 91.3729 277.005 91.2091 277.005 91.007C277.005 90.8049 276.743 90.6411 276.419 90.6411C276.095 90.6411 275.832 90.8049 275.832 91.007C275.832 91.2091 276.095 91.3729 276.419 91.3729Z" fill="#E6E6E6"/>
<path d="M280.143 92.1964C280.467 92.1964 280.729 92.0326 280.729 91.8305C280.729 91.6284 280.467 91.4646 280.143 91.4646C279.819 91.4646 279.556 91.6284 279.556 91.8305C279.556 92.0326 279.819 92.1964 280.143 92.1964Z" fill="#3F3D56"/>
<path d="M274.939 93.9801C275.263 93.9801 275.526 93.8162 275.526 93.6142C275.526 93.4121 275.263 93.2483 274.939 93.2483C274.615 93.2483 274.353 93.4121 274.353 93.6142C274.353 93.8162 274.615 93.9801 274.939 93.9801Z" fill="#FF6584"/>
<path d="M281.908 93.399C282.232 93.399 282.494 93.2352 282.494 93.0331C282.494 92.831 282.232 92.6672 281.908 92.6672C281.584 92.6672 281.321 92.831 281.321 93.0331C281.321 93.2352 281.584 93.399 281.908 93.399Z" fill="#E6E6E6"/>
<path d="M285.632 94.2227C285.956 94.2227 286.218 94.0589 286.218 93.8568C286.218 93.6548 285.956 93.491 285.632 93.491C285.308 93.491 285.045 93.6548 285.045 93.8568C285.045 94.0589 285.308 94.2227 285.632 94.2227Z" fill="#3F3D56"/>
<path d="M280.428 96.0062C280.752 96.0062 281.015 95.8424 281.015 95.6403C281.015 95.4382 280.752 95.2744 280.428 95.2744C280.104 95.2744 279.842 95.4382 279.842 95.6403C279.842 95.8424 280.104 96.0062 280.428 96.0062Z" fill="#FF6584"/>
<path d="M266.785 91.4695C266.83 91.1817 266.685 90.9261 266.461 90.8985C266.238 90.8709 266.021 91.0818 265.977 91.3696C265.933 91.6574 266.078 91.913 266.301 91.9406C266.524 91.9681 266.741 91.7572 266.785 91.4695Z" fill="#E6E6E6"/>
<path d="M265.367 94.6645C265.412 94.3768 265.267 94.1212 265.043 94.0936C264.82 94.066 264.603 94.2769 264.559 94.5647C264.515 94.8524 264.66 95.1081 264.883 95.1356C265.106 95.1632 265.323 94.9523 265.367 94.6645Z" fill="#3F3D56"/>
<path d="M264.107 89.7998C264.151 89.512 264.006 89.2564 263.783 89.2288C263.559 89.2012 263.343 89.4122 263.298 89.6999C263.254 89.9877 263.399 90.2433 263.623 90.2709C263.846 90.2985 264.063 90.0876 264.107 89.7998Z" fill="#FF6584"/>
<path d="M273.162 89.7327C273.206 89.4449 273.061 89.1892 272.838 89.1617C272.615 89.1341 272.398 89.345 272.354 89.6328C272.309 89.9205 272.454 90.1762 272.678 90.2037C272.901 90.2313 273.118 90.0204 273.162 89.7327Z" fill="#E6E6E6"/>
<path d="M271.744 92.9277C271.788 92.64 271.643 92.3843 271.42 92.3567C271.197 92.3291 270.98 92.5401 270.936 92.8278C270.891 93.1156 271.036 93.3712 271.26 93.3988C271.483 93.4264 271.7 93.2155 271.744 92.9277Z" fill="#3F3D56"/>
<path d="M270.484 88.0627C270.528 87.775 270.383 87.5193 270.159 87.4918C269.936 87.4642 269.719 87.6751 269.675 87.9629C269.631 88.2506 269.776 88.5062 269.999 88.5338C270.222 88.5614 270.439 88.3505 270.484 88.0627Z" fill="#FF6584"/>
<path d="M274.89 86.1965C274.934 85.9088 274.789 85.6531 274.565 85.6256C274.342 85.598 274.125 85.8089 274.081 86.0966C274.037 86.3844 274.182 86.64 274.405 86.6676C274.629 86.6952 274.845 86.4843 274.89 86.1965Z" fill="#3F3D56"/>
</g>
<path d="M162.4 21.6946C160.194 16.6044 156.847 12.0885 152.617 8.49581C148.387 4.90307 143.387 2.32954 138.003 0.973913C126.049 -2.13209 108.546 2.59936 99.5589 9.39283C83.1207 21.8195 79.1091 64.5095 90.4029 78C92.6492 77.9098 100.401 77.8431 102.674 77.7785L105.89 69.6474V77.6984C123.636 77.2824 142.112 77.5428 160.597 77.8122C162.254 68.2607 166.2 30.8825 162.4 21.6946Z" fill="#2F2E41"/>
<path d="M160.002 538L175.586 537.999L183 477L160 477.001L160.002 538Z" fill="#EECAD0"/>
<path d="M16 528.822L31.7187 533L55 473.166L31.8008 467L16 528.822Z" fill="#EECAD0"/>
<path d="M137.5 68C123.417 68 112 56.3594 112 42C112 27.6406 123.417 16 137.5 16C151.583 16 163 27.6406 163 42C163 56.3594 151.583 68 137.5 68Z" fill="#EECAD0"/>
<path d="M155.429 8.67768C150.456 5.69295 144.76 4.07837 138.936 4.00278C133.112 3.9272 127.375 5.39337 122.324 8.248C117.273 11.1026 113.093 15.2409 110.223 20.23C107.352 25.2191 105.896 30.8759 106.006 36.6089C120.114 40.1589 135.148 41.6437 151.08 37.4639L154.722 28.6888L156.869 37.4704C161.743 40.8459 166.447 40.8398 170.982 37.4522C171.174 31.7353 169.839 26.069 167.109 21.0195C164.38 15.97 160.352 11.7143 155.429 8.67768Z" fill="#2F2E41"/>
<path d="M152 569H163.466L165.512 558.223L170.754 569H201.164C202.621 569 204.041 568.536 205.215 567.676C206.389 566.816 207.257 565.605 207.69 564.22C208.124 562.834 208.102 561.347 207.626 559.975C207.151 558.603 206.248 557.418 205.048 556.594L180.764 539.896V529L155.221 530.518L152 569Z" fill="#3F3D56"/>
<path d="M0 555.432L11.0684 558.312L15.768 548.396L18.104 560.142L47.46 567.78C48.8671 568.146 50.3547 568.054 51.7055 567.516C53.0563 566.979 54.1996 566.025 54.9686 564.793C55.7375 563.561 56.0918 562.116 55.9797 560.669C55.8676 559.222 55.2949 557.848 54.3454 556.749L35.1228 534.49L37.8766 523.946L12.8351 519L0 555.432Z" fill="#3F3D56"/>
<path d="M17.7493 488.178C27.8194 451.284 39.0171 415.202 65.9803 390.482L73.4031 283.124C62.9639 264.017 90.0689 213.586 90.0689 213.586L99.5373 200L165.17 211.226V211.226C180.53 252.516 188.019 262.696 187.137 340.229C186.255 417.761 184.111 498.292 184.111 498.292H185.06C186.636 498.292 188.146 498.909 189.26 500.007C190.374 501.105 191 502.594 191 504.146C191 505.699 190.374 507.188 189.26 508.285C188.146 509.383 186.636 510 185.06 510H155.362C153.787 510 152.276 509.383 151.163 508.285C150.049 507.188 149.423 505.699 149.423 504.146C149.423 502.594 150.049 501.105 151.163 500.007C152.276 498.909 153.787 498.292 155.362 498.292H156.128C138.697 450 135.583 375.727 134.809 297.207L110.019 396.438L50.1128 487.803C51.6409 487.92 53.0634 488.617 54.0815 489.746C55.0996 490.875 55.634 492.349 55.5725 493.859C55.511 495.368 54.8583 496.795 53.7516 497.84C52.6449 498.885 51.1703 499.467 49.6376 499.463H19.9396C18.5584 499.465 17.2198 498.991 16.1549 498.124C15.0899 497.257 14.3652 496.051 14.1057 494.714C13.8461 493.377 14.0681 491.993 14.7332 490.8C15.3983 489.607 16.465 488.68 17.7493 488.178Z" fill="#2F2E41"/>
<path d="M84.142 224.358H84.1421C84.3851 223.396 84.9242 222.536 85.682 221.902C86.4398 221.267 87.3775 220.891 88.3607 220.827C96.3214 212.684 102.286 140.419 96.024 135.425L96.0336 135.336L97.8992 95.1738C97.9669 93.7151 98.5655 92.3328 99.5806 91.2908C100.596 90.2487 101.956 89.6201 103.402 89.5248L113.256 88.8758C113.391 88.8712 113.519 88.8138 113.613 88.7158C113.707 88.6179 113.76 88.4869 113.76 88.3506C113.76 87.254 113.974 86.1681 114.391 85.155C114.807 84.1419 115.417 83.2213 116.187 82.4458C116.956 81.6704 117.87 81.0553 118.875 80.6357C119.88 80.216 120.958 80 122.046 80H151.22C153.11 80.0008 154.934 80.6965 156.351 81.9566C157.768 83.2168 158.679 84.9546 158.915 86.8441C158.928 86.9741 158.989 87.0945 159.086 87.1811C159.183 87.2677 159.309 87.3142 159.439 87.3112L159.443 87.3111C162.758 87.2423 165.987 88.3733 168.545 90.4989C171.104 92.6245 172.821 95.6038 173.386 98.8963C177.374 122.282 175.491 171.086 171.539 200.593C170.163 210.865 180.665 230.586 181.185 239.18C181.237 240.011 181.126 240.843 180.857 241.63C180.589 242.417 180.169 243.143 179.622 243.767C180.786 244.105 181.774 244.885 182.378 245.942C182.981 247 183.154 248.253 182.86 249.436H182.859C182.556 250.649 181.787 251.691 180.721 252.333C179.655 252.974 178.38 253.163 177.177 252.857L87.5366 230.085C86.3329 229.779 85.299 229.004 84.6624 227.93C84.0257 226.856 83.8385 225.571 84.142 224.358Z" fill="#E6E6E6"/>
<path d="M277.613 125.775C276.055 125.174 274.382 124.917 272.713 125.024C271.044 125.13 269.419 125.597 267.952 126.392C266.486 127.187 265.213 128.291 264.224 129.625C263.235 130.959 262.554 132.491 262.229 134.114L172 153.307L185.95 169L272.011 147.681C274.803 148.041 277.632 147.375 279.961 145.81C282.29 144.245 283.958 141.889 284.649 139.189C285.339 136.489 285.004 133.632 283.708 131.16C282.411 128.688 280.242 126.772 277.613 125.775V125.775Z" fill="#EECAD0"/>
<path d="M157.97 175.808C171.946 183.107 256.374 154.553 260.062 153.299L261 152.98L243.638 137.056L176.84 146.816L174.816 107.794C174.587 103.488 173.029 99.3583 170.357 95.9699C167.684 92.5814 164.027 90.1002 159.886 88.8661C156.218 87.7779 152.322 87.7139 148.621 88.6811C144.92 89.6483 141.555 91.6096 138.893 94.3516C136.231 97.0937 134.374 100.511 133.524 104.233C132.673 107.955 132.862 111.838 134.069 115.461L150.598 165.047C151.871 168.854 154.047 172.297 156.939 175.086C157.247 175.374 157.594 175.617 157.97 175.808Z" fill="#E6E6E6"/>
<path d="M110.012 226.993C108.326 226.948 106.67 226.531 105.162 225.774C103.653 225.017 102.329 223.937 101.281 222.61C100.234 221.283 99.4888 219.742 99.0989 218.096C98.709 216.449 98.6837 214.736 99.0247 213.078L65 191.305L84.1822 182L113.492 204.139C116.229 204.898 118.593 206.639 120.137 209.031C121.68 211.423 122.296 214.3 121.867 217.117C121.438 219.934 119.994 222.496 117.809 224.316C115.624 226.136 112.85 227.089 110.012 226.993L110.012 226.993Z" fill="#EECAD0"/>
<path d="M103.084 122.172C103.084 122.172 123.07 106.16 115.139 94.7999C107.208 83.4395 86.9546 95.81 86.9546 95.81L28 162.202C28 162.202 90.6243 218.516 88.682 210.153C86.7397 201.79 101.267 195.252 101.267 195.252L73.3202 164.112L79.4502 161.169L76.949 159.743L79.5793 153.638L103.084 122.172Z" fill="#E6E6E6"/>
<path d="M85.3169 11.4602C87.8529 7.52829 90.6496 3.37324 94.9551 1.61644C99.2606 -0.140448 105.366 1.96032 105.952 6.61678C106.389 10.0975 103.762 13.0874 101.784 15.9707C99.8066 18.8539 98.521 23.206 101.104 25.5492L102.557 26.3069C101.168 28.1212 99.3776 29.581 97.3293 30.5691C95.2811 31.5572 93.0322 32.0461 90.7632 31.9966C86.2471 31.7076 81.8939 28.3187 81.1324 23.8091C80.3898 19.4119 82.9069 15.1967 85.3169 11.4602Z" fill="#2F2E41"/>
</svg>
