<svg width="546" height="452" viewBox="0 0 546 452" fill="none" xmlns="http://www.w3.org/2000/svg">
<path d="M431.219 29.3042C432.789 25.3607 435.172 21.8621 438.183 19.0787C441.194 16.2953 444.753 14.3015 448.585 13.2512C457.094 10.8449 469.554 14.5105 475.95 19.7737C487.651 29.401 490.507 62.4744 482.468 72.926C480.869 72.8561 475.351 72.8044 473.733 72.7543L471.444 66.4549V72.6923C458.812 72.37 445.661 72.5718 432.503 72.7805C431.323 65.3806 428.514 36.4224 431.219 29.3042Z" fill="#2F2E41"/>
<path d="M433.364 428.116L421.843 428.115L416.362 379.798L433.366 379.799L433.364 428.116Z" fill="#EECAD0"/>
<path d="M534.222 420.326L523.073 423.486L506.559 378.235L523.015 373.572L534.222 420.326Z" fill="#EECAD0"/>
<path d="M448.811 64.9492C458.889 64.9492 467.059 56.0664 467.059 45.109C467.059 34.1516 458.889 25.2689 448.811 25.2689C438.733 25.2689 430.563 34.1516 430.563 45.109C430.563 56.0664 438.733 64.9492 448.811 64.9492Z" fill="#EECAD0"/>
<path d="M436.272 19.2736C439.778 16.9496 443.795 15.6924 447.901 15.6336C452.007 15.5747 456.052 16.7163 459.614 18.9391C463.175 21.1618 466.122 24.384 468.146 28.2688C470.17 32.1535 471.197 36.5581 471.119 41.0221C461.172 43.7862 450.572 44.9424 439.339 41.6878L436.771 34.8551L435.257 41.6928C431.82 44.3212 428.503 44.3164 425.306 41.6786C425.171 37.2273 426.112 32.8152 428.036 28.8835C429.961 24.9517 432.801 21.638 436.272 19.2736V19.2736Z" fill="#2F2E41"/>
<path d="M438.518 451.901H430.343L428.883 443.509L425.146 451.901H403.463C402.423 451.901 401.411 451.54 400.574 450.87C399.737 450.201 399.118 449.258 398.809 448.179C398.5 447.1 398.516 445.942 398.855 444.873C399.194 443.805 399.838 442.883 400.693 442.241L418.009 429.239V420.755L436.221 421.937L438.518 451.901Z" fill="#3F3D56"/>
<path d="M545.738 441.643L537.827 443.885L534.468 436.164L532.798 445.31L511.816 451.256C510.81 451.541 509.747 451.47 508.781 451.051C507.816 450.633 506.999 449.89 506.449 448.931C505.9 447.971 505.646 446.846 505.726 445.72C505.807 444.593 506.216 443.524 506.895 442.668L520.634 425.338L518.666 417.128L536.564 413.277L545.738 441.643Z" fill="#3F3D56"/>
<path d="M532.808 389.941C525.757 361.442 517.916 333.57 499.036 314.474L493.839 231.545C501.148 216.786 482.169 177.83 482.169 177.83L475.539 167.336L429.583 176.007V176.007C418.827 207.902 413.584 215.766 414.201 275.656C414.819 335.546 416.32 397.754 416.32 397.754H415.655C414.552 397.754 413.494 398.23 412.714 399.078C411.935 399.926 411.496 401.076 411.496 402.275C411.496 403.475 411.935 404.625 412.714 405.473C413.494 406.321 414.552 406.797 415.655 406.797H436.45C437.553 406.797 438.611 406.321 439.391 405.473C440.171 404.625 440.609 403.475 440.609 402.275C440.609 401.076 440.171 399.926 439.391 399.078C438.611 398.23 437.553 397.754 436.45 397.754H435.914C448.12 360.45 450.3 303.077 450.842 242.424L468.2 319.075L510.147 389.651C509.077 389.742 508.081 390.28 507.368 391.152C506.655 392.024 506.281 393.163 506.324 394.329C506.367 395.495 506.824 396.597 507.599 397.404C508.374 398.212 509.406 398.661 510.479 398.658H531.274C532.241 398.659 533.179 398.293 533.924 397.624C534.67 396.954 535.178 396.022 535.359 394.99C535.541 393.957 535.386 392.887 534.92 391.966C534.454 391.044 533.707 390.328 532.808 389.941V389.941Z" fill="#2F2E41"/>
<path d="M486.924 185.561H486.924C486.751 184.823 486.368 184.164 485.829 183.677C485.29 183.191 484.624 182.902 483.925 182.853C478.266 176.608 474.026 121.188 478.478 117.358L478.471 117.289L477.145 86.4888C477.097 85.3702 476.671 84.3101 475.95 83.5109C475.228 82.7118 474.261 82.2297 473.233 82.1566L466.229 81.6589C466.133 81.6553 466.042 81.6113 465.975 81.5362C465.908 81.4611 465.871 81.3607 465.871 81.2561C465.871 80.4151 465.718 79.5824 465.422 78.8054C465.126 78.0284 464.692 77.3224 464.145 76.7277C463.599 76.133 462.949 75.6613 462.235 75.3395C461.52 75.0177 460.754 74.852 459.98 74.852H439.243C437.9 74.8526 436.603 75.3861 435.596 76.3525C434.589 77.3189 433.941 78.6517 433.773 80.1007C433.764 80.2005 433.721 80.2928 433.652 80.3592C433.583 80.4256 433.493 80.4613 433.401 80.459L433.398 80.4589C431.042 80.4061 428.746 81.2735 426.928 82.9036C425.109 84.5338 423.889 86.8186 423.487 89.3436C420.652 107.278 421.991 144.707 424.8 167.336C425.778 175.213 418.313 190.337 417.943 196.928C417.906 197.565 417.986 198.204 418.176 198.807C418.367 199.411 418.665 199.968 419.054 200.446C418.227 200.705 417.525 201.303 417.096 202.114C416.666 202.925 416.544 203.886 416.753 204.793H416.753C416.969 205.724 417.516 206.523 418.273 207.015C419.031 207.507 419.937 207.651 420.793 207.417L484.511 189.953C485.366 189.718 486.101 189.124 486.554 188.3C487.006 187.477 487.139 186.491 486.924 185.561Z" fill="#E6E6E6"/>
<path d="M349.871 109.596C350.977 109.127 352.164 108.926 353.348 109.01C354.532 109.093 355.686 109.457 356.726 110.077C357.767 110.698 358.67 111.558 359.372 112.599C360.074 113.64 360.557 114.835 360.788 116.101L424.816 131.072L414.917 143.314L353.846 126.683C351.865 126.964 349.858 126.445 348.205 125.224C346.552 124.003 345.368 122.166 344.878 120.059C344.388 117.953 344.626 115.725 345.546 113.796C346.466 111.868 348.005 110.373 349.871 109.596V109.596Z" fill="#EECAD0"/>
<path d="M434.149 147.953C424.264 153.579 364.548 131.57 361.939 130.604L361.276 130.358L373.556 118.085L420.802 125.607L422.234 95.5299C422.396 92.2111 423.497 89.0278 425.388 86.416C427.278 83.8043 429.865 81.8918 432.794 80.9406C435.388 80.1019 438.144 80.0526 440.762 80.798C443.379 81.5435 445.759 83.0552 447.642 85.1687C449.525 87.2822 450.838 89.9166 451.44 92.7853C452.042 95.6539 451.908 98.6471 451.054 101.439L439.363 139.659C438.463 142.593 436.924 145.247 434.878 147.396C434.661 147.619 434.415 147.806 434.149 147.953Z" fill="#E6E6E6"/>
<path d="M379.551 451.305H9.95741L9.86582 450.988L9.77424 450.671C8.56594 446.494 7.46103 442.26 6.46646 437.998C5.4719 433.737 4.58772 429.448 3.82092 425.161C2.77874 419.341 1.94369 413.46 1.32006 407.559C0.69642 401.659 0.284176 395.739 0.0875989 389.841C-0.253882 379.386 1.34846 368.963 4.79869 359.198C8.24892 349.432 13.4761 340.523 20.1673 333.006C26.8585 325.488 34.8761 319.515 43.7402 315.445C52.6042 311.376 62.1325 309.292 71.7545 309.32H324.761C334.822 309.301 344.774 311.588 353.967 316.031C363.161 320.475 371.39 326.975 378.118 335.109C384.846 343.242 389.922 352.826 393.014 363.236C396.106 373.645 397.146 384.646 396.065 395.522V395.523C395.344 402.555 394.134 409.517 392.445 416.349C390.698 423.417 388.493 430.342 385.847 437.071C384.947 439.364 383.99 441.662 382.975 443.965C381.962 446.262 380.899 448.549 379.786 450.825L379.669 451.065L379.551 451.305Z" fill="#E6E6E6"/>
<path d="M327.48 337.807H62.1389C56.2929 337.807 50.6863 335.282 46.5525 330.788C42.4188 326.294 40.0964 320.198 40.0964 313.842C40.0964 307.486 42.4188 301.39 46.5525 296.896C50.6863 292.401 56.2929 289.876 62.1389 289.876H327.48C333.326 289.876 338.933 292.401 343.067 296.896C347.201 301.39 349.523 307.486 349.523 313.842C349.523 320.198 347.201 326.294 343.067 330.788C338.933 335.282 333.326 337.807 327.48 337.807Z" fill="#F6869A"/>
<path d="M330.828 321.233H60.7397L60.557 320.6C56.3783 306.188 53.9968 291.232 53.4762 276.132C53.2369 268.471 54.419 260.835 56.9522 253.682C59.4853 246.528 63.3175 240.002 68.2203 234.493C73.123 228.984 78.996 224.606 85.4888 221.618C91.9816 218.63 98.9614 217.094 106.012 217.102H290.699C298.073 217.094 305.366 218.774 312.103 222.033C318.84 225.293 324.871 230.058 329.801 236.02C334.732 241.981 338.453 249.005 340.722 256.633C342.99 264.262 343.756 272.324 342.968 280.296C341.608 293.796 337.602 307.408 331.063 320.754L330.828 321.233Z" fill="#E6E6E6"/>
<path d="M294.209 247.371H98.7378C92.8918 247.371 87.2852 244.847 83.1514 240.352C79.0176 235.858 76.6953 229.762 76.6953 223.406C76.6953 217.05 79.0176 210.954 83.1514 206.46C87.2852 201.965 92.8918 199.44 98.7378 199.44H294.209C300.055 199.44 305.661 201.965 309.795 206.46C313.929 210.954 316.251 217.05 316.251 223.406C316.251 229.762 313.929 235.858 309.795 240.352C305.661 244.847 300.055 247.371 294.209 247.371V247.371Z" fill="#F6869A"/>
<path d="M307.226 163.076C303.129 158.111 298.116 154.139 292.515 151.419C286.913 148.699 280.847 147.29 274.712 147.286H122.003C116.155 147.28 110.366 148.554 104.98 151.032C99.595 153.511 94.7237 157.143 90.657 161.712C86.5904 166.281 83.4115 171.694 81.3101 177.627C79.2086 183.561 78.2276 189.893 78.4255 196.248C78.8547 208.75 80.8242 221.132 84.2813 233.064L84.4642 233.698H307.975L308.208 233.218C313.429 222.832 316.774 211.456 318.065 199.703C318.724 193.112 318.1 186.445 316.233 180.135C314.365 173.824 311.297 168.012 307.226 163.076V163.076Z" fill="#E6E6E6"/>
<path d="M271.925 147.286H127.676C126.604 150.882 126.33 154.703 126.876 158.437C127.423 162.17 128.773 165.71 130.818 168.768C132.863 171.825 135.544 174.314 138.642 176.029C141.741 177.745 145.168 178.64 148.645 178.64H250.956C254.433 178.64 257.86 177.745 260.959 176.029C264.057 174.314 266.738 171.825 268.783 168.768C270.828 165.71 272.178 162.17 272.725 158.437C273.271 154.703 272.997 150.882 271.925 147.286V147.286Z" fill="#F6869A"/>
<path d="M385.082 436.717C383.285 441.293 381.275 445.854 379.052 450.4H10.5678C8.15346 442.057 6.17342 433.573 4.63715 424.988C5.32411 424.407 6.11831 423.995 6.96537 423.78C7.81242 423.565 8.6923 423.551 9.54471 423.74C11.3007 424.344 12.8183 425.574 13.8534 427.23C16.956 431.608 18.2536 437.151 19.4763 442.523C20.7822 439.358 22.138 436.111 24.4172 433.669C25.3243 432.647 26.4165 431.841 27.6248 431.3C28.8332 430.76 30.1314 430.498 31.4375 430.531C32.3606 428.736 33.6779 427.217 35.272 426.109C37.5096 424.662 40.5622 424.463 42.6001 426.209C43.9677 427.55 44.8792 429.353 45.187 431.327C46.3266 436.717 45.3783 442.342 44.4301 447.787C46.8339 445.49 49.3127 443.156 52.3155 441.972C53.6745 441.431 55.1213 441.2 56.5659 441.293C56.8486 438.285 57.579 435.347 58.7286 432.593C59.7011 429.954 61.3822 427.695 63.553 426.109C65.7905 424.662 68.8432 424.463 70.881 426.209C72.2487 427.55 73.1601 429.353 73.4679 431.327C74.6075 436.717 73.6592 442.342 72.711 447.787C75.1148 445.49 77.5936 443.156 80.5964 441.972C81.9554 441.431 83.4022 441.2 84.8468 441.293C85.1295 438.285 85.8599 435.347 87.0095 432.593C87.982 429.954 89.6631 427.695 91.8339 426.109C94.0714 424.662 97.1241 424.463 99.162 426.209C100.53 427.55 101.441 429.353 101.749 431.327C102.888 436.717 101.94 442.342 100.992 447.787C103.396 445.49 105.875 443.156 108.877 441.972C110.236 441.431 111.683 441.2 113.128 441.293C113.41 438.285 114.141 435.347 115.29 432.593C116.263 429.954 117.944 427.695 120.115 426.109C122.352 424.662 125.405 424.463 127.443 426.209C128.811 427.55 129.722 429.353 130.03 431.327C131.169 436.717 130.221 442.342 129.273 447.787C131.677 445.49 134.155 443.156 137.158 441.972C138.517 441.431 139.964 441.2 141.409 441.293C141.691 438.285 142.422 435.347 143.571 432.593C144.544 429.954 146.225 427.695 148.396 426.109C150.633 424.662 153.686 424.463 155.724 426.209C157.091 427.55 158.003 429.353 158.311 431.327C159.45 436.717 158.502 442.342 157.554 447.787C159.958 445.49 162.436 443.156 165.439 441.972C166.798 441.431 168.245 441.2 169.69 441.293C169.972 438.285 170.703 435.347 171.852 432.593C172.825 429.954 174.506 427.695 176.677 426.109C178.914 424.662 181.967 424.463 184.005 426.209C185.372 427.55 186.284 429.353 186.592 431.327C187.731 436.717 186.783 442.342 185.835 447.787C188.239 445.49 190.717 443.156 193.72 441.972C195.079 441.431 196.526 441.2 197.971 441.293C198.253 438.285 198.984 435.347 200.133 432.593C201.106 429.954 202.787 427.695 204.958 426.109C207.195 424.662 210.248 424.463 212.286 426.209C213.653 427.55 214.565 429.353 214.873 431.327C216.012 436.717 215.064 442.342 214.116 447.787C216.519 445.49 218.998 443.156 222.001 441.972C223.36 441.431 224.807 441.2 226.252 441.293C226.534 438.285 227.265 435.347 228.414 432.593C229.387 429.954 231.068 427.695 233.239 426.109C235.476 424.662 238.529 424.463 240.567 426.209C241.934 427.55 242.846 429.353 243.153 431.327C244.293 436.717 243.345 442.342 242.397 447.787C244.8 445.49 247.279 443.156 250.282 441.972C251.641 441.431 253.088 441.2 254.532 441.293C254.815 438.285 255.545 435.347 256.695 432.593C257.668 429.954 259.349 427.695 261.519 426.109C263.757 424.662 266.81 424.463 268.848 426.209C270.215 427.55 271.127 429.353 271.434 431.327C272.574 436.717 271.626 442.342 270.677 447.787C273.081 445.49 275.56 443.156 278.563 441.972C279.922 441.431 281.369 441.2 282.813 441.293C283.096 438.285 283.826 435.347 284.976 432.593C285.948 429.954 287.63 427.695 289.8 426.109C292.038 424.662 295.091 424.463 297.128 426.209C298.496 427.55 299.408 429.353 299.715 431.327C300.855 436.717 299.907 442.342 298.958 447.787C301.362 445.49 303.841 443.156 306.844 441.972C308.203 441.431 309.65 441.2 311.094 441.293C311.377 438.285 312.107 435.347 313.257 432.593C314.229 429.954 315.911 427.695 318.081 426.109C320.319 424.662 323.372 424.463 325.409 426.209C326.777 427.55 327.688 429.353 327.996 431.327C329.136 436.717 328.188 442.342 327.239 447.787C329.643 445.49 332.122 443.156 335.125 441.972C336.484 441.431 337.931 441.2 339.375 441.293C339.658 438.285 340.388 435.347 341.538 432.593C342.51 429.954 344.191 427.695 346.362 426.109C348.6 424.662 351.652 424.463 353.69 426.209C355.058 427.55 355.969 429.353 356.277 431.327C357.417 436.717 356.469 442.342 355.52 447.787C357.924 445.49 360.403 443.156 363.406 441.972C364.765 441.431 366.212 441.2 367.656 441.293C367.939 438.285 368.669 435.347 369.819 432.593C370.791 429.954 372.472 427.695 374.643 426.109C376.881 424.662 379.933 424.463 381.971 426.209C383.339 427.55 384.25 429.353 384.558 431.327C384.919 433.097 385.095 434.905 385.082 436.717V436.717Z" fill="#CCCCCC"/>
<path d="M84.0682 176.702C89.9046 173.903 96.9433 174.964 102.153 178.828C107.639 182.897 110.193 190.063 109.526 197.134C109.156 201.191 107.644 205.025 105.195 208.112L106.078 207.715C103.361 207.679 101.873 204.223 102.286 201.612C102.845 198.077 106.558 196.248 109.509 195.982C113.526 195.621 117.389 197.515 121.012 199.15C124.9 200.917 128.882 202.429 132.938 203.675C141.186 206.179 149.688 207.557 158.249 207.779C162.469 207.889 166.691 207.71 170.891 207.241C174.728 206.812 178.662 206.282 182.262 204.694C185.901 203.089 189.044 200.449 190.598 196.437C191.364 194.66 191.674 192.691 191.495 190.738C191.317 188.786 190.656 186.922 189.584 185.344C189.428 185.178 189.236 185.059 189.026 184.999C188.816 184.938 188.595 184.938 188.384 184.998C188.174 185.059 187.982 185.177 187.826 185.343C187.671 185.509 187.558 185.715 187.498 185.943C186.922 189.039 186.946 192.231 187.569 195.316C188.191 198.401 189.398 201.312 191.112 203.862C192.934 206.582 195.296 208.821 198.024 210.412C200.751 212.002 203.773 212.904 206.866 213.049C213.925 213.464 220.83 210.489 226.961 206.965C233.368 203.283 239.213 198.565 245.727 195.086C252.011 191.731 259.25 189.26 266.241 191.273C271.813 192.877 277.703 198.169 275.864 205.124C275.154 207.811 273.172 210.073 270.48 210.064C268.196 210.057 265.56 208.487 265.284 205.801C264.954 202.582 267.79 200.054 270.312 199.104C273.926 197.744 277.957 198.763 281.654 199.105C287.723 199.696 293.779 197.834 298.665 193.875C303.377 190.146 306.81 184.815 308.42 178.725C308.8 177.174 309.046 175.588 309.155 173.987C309.284 172.246 306.788 172.255 306.66 173.987C306.352 177.251 305.452 180.417 304.012 183.301C302.571 186.185 300.619 188.73 298.268 190.788C295.929 192.911 293.228 194.514 290.319 195.504C287.159 196.485 283.847 196.75 280.589 196.282C276.84 195.867 272.811 195.122 269.191 196.672C266.418 197.859 263.742 200.213 262.982 203.48C261.503 209.837 268.194 214.443 273.322 212.191C279.077 209.664 279.965 201.224 276.9 196.055C273.216 189.842 265.865 187.425 259.372 187.888C243.943 188.987 232.749 202.429 218.827 208.025C212.257 210.666 204.67 211.687 198.388 207.598C195.845 205.878 193.717 203.522 192.183 200.725C190.648 197.929 189.752 194.773 189.568 191.523C189.483 189.894 189.596 188.26 189.904 186.664L187.819 187.263C189.374 189.449 189.309 192.435 188.48 194.925C187.473 197.713 185.545 199.991 183.073 201.314C180.355 202.758 177.43 203.686 174.425 204.057C171.093 204.582 167.738 204.904 164.373 205.022C150.836 205.562 137.337 203.122 124.687 197.851C118.987 195.47 112.947 191.797 106.67 193.822C101.94 195.349 98.3129 200.268 100.291 205.704C100.652 206.839 101.271 207.856 102.09 208.663C102.909 209.469 103.901 210.039 104.975 210.319C105.544 210.505 106.154 210.478 106.707 210.243C107.214 209.813 107.643 209.285 107.973 208.685C108.811 207.489 109.527 206.197 110.108 204.832C112.317 199.606 112.726 193.692 111.26 188.166C107.784 175.337 93.8755 169.051 82.8086 174.36C81.3425 175.063 82.6109 177.401 84.0681 176.702L84.0682 176.702Z" fill="#3F3D56"/>
<path d="M56.7768 257.526C60.3491 266.882 65.7886 275.259 72.7022 282.05C79.6158 288.841 87.8308 293.877 96.7534 296.795C99.7935 297.799 102.911 298.503 106.067 298.897C109.074 299.25 112.373 299.044 114.862 296.97C118.447 293.984 118.37 285.446 112.692 285.509C109.886 285.54 107.537 288.335 107.188 291.238C106.781 294.627 108.719 297.793 111.041 299.841C116.135 304.333 123.124 304.888 129.334 303.482C136.466 301.867 142.717 297.483 148.971 293.642C156.132 289.243 164.642 284.825 173.065 287.182C179.452 288.969 185.277 296.259 183.195 303.702L185.027 302.891C182.255 301.525 181.58 297.746 182.669 294.856C184.032 291.238 188.017 289.887 191.323 289.889C195.681 289.893 199.707 292.092 203.576 294.03C207.136 295.852 210.835 297.334 214.63 298.46C229.601 302.691 245.457 301.162 259.508 294.132C262.957 292.435 266.24 290.363 269.307 287.95C271.733 286.004 274.536 282.6 272.58 279.184C272.22 278.519 271.715 277.96 271.11 277.556C270.505 277.153 269.818 276.917 269.109 276.87C267.402 276.861 266.653 278.151 266.119 279.724C265.066 283.074 265.055 286.707 266.086 290.065C268.252 297.505 274.026 302.641 280.873 304.516C288.446 306.589 296.6 305.175 303.921 302.613C317.92 297.666 329.979 287.738 338.154 274.429C339.175 272.757 340.12 271.033 341.001 269.27C341.768 267.736 339.615 266.365 338.846 267.901C332.132 281.211 321.537 291.716 308.731 297.764C296.978 303.313 277.521 307.4 269.834 292.663C268.243 289.757 267.57 286.365 267.918 283.005C268.057 281.941 268.372 278.862 269.807 279.867C271.432 281.005 270.549 283.015 269.515 284.216C267.185 286.924 263.661 288.826 260.659 290.509C257.439 292.309 254.08 293.797 250.621 294.955C236.605 299.709 221.51 299.071 207.876 293.148C200.642 289.926 192.385 284.209 184.541 288.935C183.12 289.751 181.923 290.962 181.071 292.444C180.22 293.926 179.744 295.627 179.692 297.373C179.606 300.578 180.996 303.868 183.768 305.234C183.934 305.334 184.119 305.392 184.308 305.405C184.498 305.417 184.687 305.383 184.863 305.306C185.039 305.228 185.196 305.108 185.324 304.955C185.452 304.803 185.546 304.621 185.601 304.423C187.162 298.845 185.001 293.008 181.214 289.12C176.76 284.547 170.695 283.237 164.75 284.13C151.244 286.157 141.453 298.199 128.233 300.961C122.53 302.153 115.494 301.484 111.392 296.473C109.559 294.235 108.524 289.702 111.95 288.383C114.465 287.416 115.251 290.658 114.691 292.652C112.959 298.814 103.388 295.899 99.4163 294.782C93.9543 293.235 88.7242 290.846 83.8856 287.686C72.8142 280.545 64.1524 269.716 59.1831 256.805C58.5843 255.21 56.1693 255.908 56.7769 257.526H56.7768Z" fill="#CCCCCC"/>
<path d="M3.41339 372.595C22.5428 368.675 46.0629 364.727 60.4123 382.794C63.2585 386.302 65.2251 390.549 66.1225 395.124C66.5021 397.181 66.9782 399.463 65.0573 400.735C64.3178 401.199 63.4824 401.452 62.6287 401.472C61.7749 401.491 60.9305 401.275 60.1739 400.845C55.9828 398.317 58.3177 391.592 61.4722 389.388C65.7679 386.388 71.2942 387.669 75.7031 389.622C80.4862 391.742 85.0107 394.45 89.8507 396.447C94.4256 398.332 99.1164 399.867 103.888 401.04C113.774 403.475 123.923 404.397 134.043 403.782C143.856 403.295 153.548 401.222 162.8 397.631C166.341 396.195 170.025 394.12 172.181 390.611C173.173 389.052 173.681 387.189 173.632 385.294C173.584 383.399 172.981 381.57 171.911 380.072C170.786 378.428 169.165 377.265 167.332 376.786C165.5 376.307 163.57 376.543 161.881 377.452C160.318 378.369 159.048 379.781 158.239 381.501C157.575 382.916 156.708 385.717 157.556 387.208C157.987 387.966 159.04 388.267 159.73 388.635C160.885 389.251 162.05 389.845 163.223 390.418C165.276 391.421 167.354 392.362 169.456 393.242C174.057 395.163 178.764 396.774 183.548 398.064C202.371 403.123 222.015 403.388 240.948 398.837C245.656 397.702 250.296 396.258 254.843 394.513C259.142 392.862 263.68 391.096 267.633 388.595C270.75 386.623 274.403 383.236 274.11 378.899C273.992 377.315 273.31 375.842 272.209 374.795C271.108 373.748 269.675 373.21 268.214 373.294C266.714 373.299 265.245 373.757 263.972 374.619C262.698 375.48 261.67 376.709 261.003 378.17C259.309 382.346 261.003 387.102 263.474 390.435C268.809 397.634 277.91 400.219 286.075 400.131C295.536 400.029 304.506 396.78 313.282 393.246C323.11 389.289 333.37 384.896 344.047 385.598C353.669 386.231 362.735 392.419 372.505 391.134C380.986 390.019 385.963 382.641 388.163 374.24C389.157 370.144 389.837 365.965 390.196 361.747C390.374 360.015 387.877 360.029 387.7 361.747C386.852 369.994 385.562 380.453 378.856 385.689C370.723 392.04 360.132 386.443 351.608 384.187C341.774 381.585 332.122 383.359 322.641 386.736C313.303 390.062 304.312 394.609 294.585 396.507C286.136 398.156 276.784 397.973 269.415 392.62C265.794 389.99 261.475 384.819 263.141 379.64C264.093 376.681 269.05 374.26 271.064 377.365C274.029 381.936 266.575 386.269 263.712 387.702C259.328 389.888 254.82 391.769 250.217 393.334C220.089 403.553 187.493 400.692 159.263 385.352L159.881 386.524C159.401 381.839 163.779 377.443 167.957 379.908C171.937 382.255 171.911 387.408 168.941 390.64C166.016 393.823 161.822 395.24 157.962 396.5C153.702 397.891 149.364 398.982 144.976 399.767C126.546 403.032 107.649 400.939 90.2026 393.701C82.3888 390.446 74.2968 383.834 65.5374 385.065C62.0433 385.556 58.6647 387.399 56.8486 390.794C55.2481 393.787 54.9038 397.72 56.6052 400.749C59.3204 405.585 68.8301 405.362 68.9945 398.579C69.1817 390.853 64.6974 383.138 59.6879 378.075C44.0869 362.308 21.8277 366.07 2.74997 369.979C1.17378 370.302 1.84126 372.917 3.41334 372.595L3.41339 372.595Z" fill="#CCCCCC"/>
<path d="M245.322 109.231C251.39 108.105 253.992 100.145 252.566 94.2835C251.639 90.4725 249.464 87.2018 247.047 84.3348C244.242 81.0082 241.131 77.9703 238.142 74.8424C234.488 71.0177 230.833 67.193 227.179 63.3683C227.023 63.2036 226.831 63.0855 226.621 63.0255C226.411 62.9655 226.19 62.9657 225.981 63.026C225.771 63.0862 225.579 63.2045 225.423 63.3694C225.268 63.5343 225.154 63.7401 225.094 63.9669C223.513 75.1639 225.992 86.5908 232.009 95.8396C233.546 98.1498 235.276 100.3 237.179 102.263C239.035 104.203 241.025 106.134 242.179 108.686L245.535 111.362C245.424 110.645 245.257 109.939 245.037 109.252C245.132 109.256 245.228 109.248 245.322 109.231V109.231Z" fill="#FD6584"/>
<path d="M245.133 108.552H242.638C243.948 111.453 243.413 115.866 243.231 119.01C243.027 122.525 242.748 126.036 242.503 129.547C241.953 137.444 241.403 145.34 240.853 153.237C240.732 154.978 243.228 154.97 243.349 153.237L244.812 132.229C245.061 128.653 245.31 125.078 245.559 121.502C245.761 117.18 245.618 112.847 245.133 108.552V108.552Z" fill="#3F3D56"/>
<path d="M245.31 108.86C245.836 107.17 246.024 105.377 245.861 103.602C245.698 101.826 245.187 100.109 244.363 98.5659C244.191 98.2683 243.918 98.0553 243.604 97.9719C243.289 97.8884 242.957 97.9411 242.678 98.1187C242.398 98.2963 242.193 98.5851 242.106 98.924C242.018 99.2629 242.055 99.6255 242.209 99.9353C242.869 101.164 243.273 102.536 243.393 103.953C243.513 105.37 243.346 106.799 242.903 108.139C242.816 108.485 242.859 108.856 243.022 109.168C243.185 109.481 243.456 109.71 243.775 109.806C244.094 109.901 244.435 109.855 244.722 109.678C245.01 109.501 245.221 109.206 245.31 108.86H245.31Z" fill="#3F3D56"/>
<path d="M148.003 106.518C154.071 105.392 156.672 97.4317 155.247 91.5704C154.32 87.7594 152.145 84.4888 149.727 81.6217C146.922 78.2951 143.811 75.2572 140.823 72.1293C137.168 68.3046 133.514 64.4799 129.859 60.6552C129.704 60.4905 129.512 60.3725 129.302 60.3125C129.092 60.2525 128.871 60.2526 128.661 60.3129C128.451 60.3731 128.259 60.4915 128.104 60.6563C127.948 60.8212 127.835 61.0271 127.774 61.2538C126.194 72.4508 128.673 83.8777 134.689 93.1265C136.226 95.4367 137.957 97.5871 139.859 99.55C141.716 101.49 143.706 103.421 144.859 105.973L148.215 108.649C148.104 107.932 147.937 107.226 147.717 106.539C147.813 106.543 147.908 106.535 148.003 106.518V106.518Z" fill="#FD6584"/>
<path d="M147.813 105.839H145.318C146.629 108.74 146.093 113.153 145.911 116.297C145.707 119.812 145.428 123.323 145.184 126.834C144.634 134.731 144.084 142.627 143.534 150.524C143.412 152.265 145.908 152.257 146.029 150.524L147.492 129.516C147.741 125.94 147.99 122.365 148.239 118.789C148.441 114.467 148.299 110.134 147.813 105.839Z" fill="#3F3D56"/>
<path d="M147.99 106.147C148.516 104.457 148.704 102.664 148.541 100.888C148.378 99.1131 147.868 97.3961 147.044 95.8528C146.871 95.5552 146.599 95.3422 146.284 95.2588C145.97 95.1753 145.638 95.228 145.358 95.4056C145.079 95.5833 144.873 95.872 144.786 96.2109C144.698 96.5498 144.735 96.9124 144.889 97.2222C145.549 98.4514 145.953 99.8228 146.073 101.24C146.193 102.657 146.026 104.086 145.584 105.425C145.496 105.772 145.539 106.143 145.702 106.455C145.866 106.768 146.137 106.997 146.456 107.092C146.774 107.188 147.115 107.142 147.403 106.965C147.69 106.787 147.902 106.493 147.99 106.147H147.99Z" fill="#3F3D56"/>
<path d="M193.751 101.996C199.819 100.87 202.421 92.9099 200.995 87.0486C200.068 83.2376 197.893 79.967 195.476 77.0999C192.671 73.7733 189.56 70.7354 186.571 67.6075C182.917 63.7828 179.262 59.9581 175.608 56.1334C175.452 55.9687 175.26 55.8507 175.05 55.7907C174.84 55.7307 174.619 55.7308 174.409 55.7911C174.199 55.8514 174.007 55.9697 173.852 56.1346C173.697 56.2994 173.583 56.5053 173.523 56.732C171.942 67.929 174.421 79.3559 180.438 88.6047C181.975 90.9149 183.705 93.0653 185.607 95.0282C187.464 96.9681 189.454 98.8994 190.607 101.452L193.964 104.127C193.853 103.41 193.686 102.704 193.465 102.017C193.561 102.021 193.657 102.013 193.751 101.996V101.996Z" fill="#FD6584"/>
<path d="M193.562 101.318H191.067C192.377 104.218 191.842 108.631 191.66 111.775C191.456 115.29 191.177 118.801 190.932 122.313C190.382 130.209 189.832 138.105 189.282 146.002C189.161 147.743 191.657 147.735 191.778 146.002L193.241 124.994C193.49 121.419 193.739 117.843 193.988 114.267C194.19 109.945 194.047 105.613 193.562 101.318V101.318Z" fill="#3F3D56"/>
<path d="M193.738 101.625C194.265 99.935 194.453 98.1421 194.29 96.3667C194.127 94.5913 193.616 92.8743 192.792 91.3311C192.62 91.0334 192.347 90.8204 192.033 90.737C191.718 90.6536 191.386 90.7062 191.107 90.8838C190.827 91.0615 190.622 91.3502 190.534 91.6891C190.447 92.028 190.484 92.3906 190.638 92.7004C191.298 93.9296 191.702 95.3011 191.822 96.7183C191.942 98.1356 191.775 99.5642 191.332 100.904C191.245 101.25 191.287 101.621 191.451 101.933C191.614 102.246 191.885 102.475 192.204 102.571C192.523 102.666 192.864 102.62 193.151 102.443C193.439 102.266 193.65 101.971 193.739 101.625H193.738Z" fill="#3F3D56"/>
<path d="M228.848 263.411C228.233 260.856 225.882 258.699 223.493 259.171C221.572 259.55 220.157 261.464 219.626 263.506C219.213 265.585 219.16 267.73 219.467 269.831C217.324 267.38 215.095 264.864 212.226 263.557C211.217 263.017 210.07 262.864 208.971 263.123C208.223 263.419 207.572 263.949 207.099 264.645C206.626 265.342 206.352 266.174 206.311 267.039C206.26 268.775 206.691 270.488 207.548 271.955C208.745 274.202 210.387 276.13 212.356 277.599C214.325 279.067 216.571 280.04 218.93 280.446L218.157 279.349C222.083 277.86 225.391 274.894 227.482 270.987C228.696 268.699 229.464 265.965 228.848 263.411Z" fill="#FD6584"/>
<path d="M115.725 370.125C115.109 367.57 112.759 365.413 110.369 365.885C108.448 366.264 107.033 368.178 106.502 370.22C106.09 372.3 106.036 374.444 106.343 376.545C104.201 374.095 101.971 371.578 99.1028 370.271C98.0937 369.731 96.9464 369.579 95.8472 369.837C95.0992 370.134 94.4483 370.663 93.9753 371.36C93.5024 372.056 93.2284 372.888 93.1876 373.753C93.1367 375.49 93.5675 377.203 94.4239 378.67C95.6208 380.916 97.2637 382.844 99.2327 384.313C101.202 385.782 103.447 386.754 105.806 387.16L105.033 386.063C108.959 384.574 112.267 381.608 114.358 377.701C115.572 375.414 116.34 372.679 115.725 370.125Z" fill="#FD6584"/>
<path d="M135.688 210.958C135.072 208.403 132.722 206.246 130.332 206.718C128.412 207.097 126.996 209.011 126.465 211.053C126.053 213.133 125.999 215.277 126.306 217.378C124.164 214.928 121.934 212.411 119.066 211.104C118.057 210.564 116.909 210.411 115.81 210.67C115.062 210.967 114.411 211.496 113.938 212.192C113.465 212.889 113.191 213.721 113.151 214.586C113.1 216.322 113.53 218.035 114.387 219.502C115.584 221.749 117.227 223.677 119.196 225.146C121.165 226.614 123.41 227.587 125.769 227.993L124.996 226.896C128.922 225.407 132.23 222.441 134.321 218.534C135.535 216.246 136.303 213.512 135.688 210.958Z" fill="#FD6584"/>
<path d="M311.498 61.5452C309.441 71.3753 308.462 82.5199 313.952 91.3167C316.285 95.0905 319.709 97.9107 323.682 99.3309C327.703 100.627 331.944 100.91 336.081 100.159C345.443 98.7487 353.764 93.4467 362.971 91.3882C367.034 90.4798 371.346 90.1795 375.258 91.9278C378.189 93.2377 381.276 95.8714 381.29 99.6282C381.304 103.486 378.222 106.046 375.158 107.233C371.068 108.815 366.818 108.203 362.576 108.003C358.007 107.788 353.349 108.238 349.554 111.279C346.289 114.05 343.786 117.74 342.316 121.948C340.408 126.982 339.634 132.394 338.414 137.646C337.324 142.368 335.781 146.953 333.812 151.325C329.949 159.895 324.532 167.528 317.889 173.766C314.612 176.832 310.631 179.956 306.156 180.237C302.704 180.454 298.508 178.877 297.178 175.076C296.684 173.435 296.732 171.657 297.315 170.051C297.898 168.444 298.978 167.11 300.369 166.277C303.327 164.654 306.549 166.969 307.504 170.147C307.755 170.879 307.842 171.666 307.76 172.442C307.677 173.218 307.427 173.962 307.029 174.613C306.132 176.068 308.293 177.427 309.184 175.983C311.253 172.629 310.171 168.119 307.638 165.433C306.402 164.063 304.75 163.229 302.99 163.086C301.23 162.943 299.482 163.502 298.073 164.658C296.609 165.869 295.503 167.52 294.889 169.406C294.275 171.292 294.181 173.331 294.619 175.274C295.683 179.449 299.456 182.105 303.224 182.763C307.877 183.575 312.355 181.587 316.111 178.715C319.88 175.757 323.307 172.316 326.317 168.466C332.437 160.813 337.037 151.87 339.83 142.195C342.577 132.626 342.777 119.984 350.938 113.522C355.138 110.196 360.284 110.565 365.207 110.87C369.554 111.14 373.794 111.091 377.782 108.952C381.074 107.185 383.731 103.924 383.786 99.7701C383.841 95.5764 381.103 92.2043 377.876 90.2937C369.352 85.2463 359.115 89.317 350.741 92.6891C342.32 96.0802 332.705 100.06 323.755 96.4917C319.625 94.7465 316.299 91.2918 314.507 86.8849C312.34 81.888 312.032 76.2183 312.533 70.7954C312.828 67.9244 313.286 65.076 313.905 62.2665C314.261 60.5665 311.855 59.8408 311.498 61.5452V61.5452Z" fill="#3F3D56"/>
<path d="M326.794 33.9694C324.326 42.927 320.606 51.4187 315.764 59.1467C314.566 61.0459 313.308 62.8968 311.988 64.6995C310.962 62.6726 309.72 60.7845 308.286 59.0744C303.254 53.0604 296.508 49.1264 289.962 45.1834C283.416 41.2404 276.77 37.008 272.145 30.6142C270.07 27.736 268.584 24.4091 267.786 20.8562C266.738 16.0359 267.138 11.0077 269.725 6.98329C273.484 1.13209 280.979 -0.92984 287.35 0.761312C293.73 2.45246 299.07 7.27269 303.213 12.8074C301.857 6.00659 308.453 -0.559055 314.833 0.0378217C321.212 0.643742 326.328 6.70294 328.025 13.4133C329.73 20.1146 328.624 27.2952 326.794 33.9694Z" fill="#F6869A"/>
<g opacity="0.2">
<path opacity="0.2" d="M315.764 59.1467C314.566 61.0459 313.308 62.8968 311.988 64.6995C310.962 62.6725 309.72 60.7844 308.286 59.0743C303.254 53.0604 296.508 49.1264 289.962 45.1834C283.416 41.2404 276.77 37.008 272.145 30.6142C270.07 27.736 268.584 24.4091 267.786 20.8561C282.502 23.0742 296.025 30.8736 305.966 42.8773C309.946 47.7505 313.247 53.2319 315.764 59.1467V59.1467Z" fill="black"/>
</g>
<path d="M468.366 187.42C469.553 187.386 470.718 187.068 471.779 186.491C472.841 185.914 473.773 185.09 474.51 184.079C475.247 183.068 475.771 181.893 476.046 180.637C476.32 179.382 476.338 178.076 476.098 176.812L500.04 160.213L486.542 153.12L465.918 169.997C463.992 170.576 462.328 171.903 461.242 173.727C460.156 175.55 459.723 177.744 460.024 179.891C460.326 182.039 461.342 183.992 462.88 185.379C464.417 186.767 466.369 187.493 468.366 187.421L468.366 187.42Z" fill="#EECAD0"/>
<path d="M473.247 106.644C473.247 106.644 459.193 94.2881 464.77 85.5214C470.347 76.7547 484.589 86.3008 484.589 86.3008L526.045 137.535C526.045 137.535 482.009 180.992 483.374 174.538C484.74 168.084 474.525 163.039 474.525 163.039L494.176 139.009L489.866 136.737L491.625 135.637L489.775 130.926L473.247 106.644Z" fill="#E6E6E6"/>
<path d="M486.089 21.2429C484.286 18.2364 482.298 15.0592 479.236 13.7159C476.175 12.3725 471.834 13.9788 471.418 17.5394C471.107 20.201 472.975 22.4872 474.381 24.6919C475.787 26.8966 476.701 30.2244 474.864 32.0162L473.831 32.5956C474.819 33.9829 476.092 35.0991 477.548 35.8547C479.005 36.6102 480.604 36.9841 482.217 36.9462C485.428 36.7252 488.523 34.1339 489.065 30.6856C489.593 27.3233 487.803 24.1001 486.089 21.2429Z" fill="#2F2E41"/>
</svg>
