<svg width="546" height="452" viewBox="0 0 546 452" fill="none" xmlns="http://www.w3.org/2000/svg">
<g id="MainHeaderImg">
<path id="Vector" d="M431.177 29.3042C432.747 25.3607 435.129 21.8621 438.14 19.0787C441.151 16.2953 444.711 14.3015 448.543 13.2512C457.052 10.8449 469.511 14.5105 475.908 19.7737C487.609 29.401 490.464 62.4744 482.425 72.926C480.826 72.8561 475.309 72.8044 473.69 72.7543L471.401 66.4549V72.6923C458.769 72.37 445.618 72.5718 432.46 72.7805C431.281 65.3806 428.472 36.4224 431.177 29.3042Z" fill="#2F2E41"/>
<path id="Vector_2" d="M433.322 428.116L421.801 428.115L416.319 379.798L433.323 379.799L433.322 428.116Z" fill="#EECAD0"/>
<path id="Vector_3" d="M534.18 420.326L523.03 423.486L506.517 378.235L522.972 373.572L534.18 420.326Z" fill="#EECAD0"/>
<path id="Vector_4" d="M448.768 64.9492C458.847 64.9492 467.017 56.0664 467.017 45.109C467.017 34.1516 458.847 25.2689 448.768 25.2689C438.69 25.2689 430.52 34.1516 430.52 45.109C430.52 56.0664 438.69 64.9492 448.768 64.9492Z" fill="#EECAD0"/>
<path id="Vector_5" d="M436.23 19.2736C439.736 16.9496 443.752 15.6924 447.858 15.6336C451.964 15.5747 456.01 16.7163 459.571 18.9391C463.132 21.1618 466.079 24.384 468.103 28.2688C470.127 32.1535 471.154 36.5581 471.076 41.0221C461.129 43.7862 450.529 44.9424 439.296 41.6878L436.728 34.8551L435.214 41.6928C431.778 44.3212 428.461 44.3164 425.264 41.6786C425.128 37.2273 426.069 32.8152 427.994 28.8835C429.918 24.9517 432.758 21.638 436.23 19.2736V19.2736Z" fill="#2F2E41"/>
<path id="Vector_6" d="M438.476 451.901H430.3L428.841 443.509L425.103 451.901H403.42C402.381 451.901 401.369 451.54 400.531 450.87C399.694 450.201 399.076 449.258 398.766 448.179C398.457 447.1 398.473 445.942 398.812 444.873C399.151 443.805 399.795 442.883 400.65 442.241L417.966 429.239V420.755L436.179 421.937L438.476 451.901Z" fill="#3F3D56"/>
<path id="Vector_7" d="M545.695 441.643L537.784 443.885L534.425 436.164L532.755 445.31L511.773 451.256C510.768 451.541 509.704 451.47 508.739 451.051C507.773 450.633 506.956 449.89 506.407 448.931C505.857 447.971 505.604 446.846 505.684 445.72C505.764 444.593 506.173 443.524 506.852 442.668L520.591 425.338L518.623 417.128L536.521 413.277L545.695 441.643Z" fill="#3F3D56"/>
<path id="Vector_8" d="M532.765 389.941C525.714 361.442 517.874 333.57 498.994 314.474L493.796 231.545C501.106 216.786 482.127 177.83 482.127 177.83L475.497 167.336L429.54 176.007V176.007C418.785 207.902 413.541 215.766 414.159 275.656C414.776 335.546 416.278 397.754 416.278 397.754H415.613C414.51 397.754 413.452 398.23 412.672 399.078C411.892 399.926 411.454 401.076 411.454 402.275C411.454 403.475 411.892 404.625 412.672 405.473C413.452 406.321 414.51 406.797 415.613 406.797H436.408C437.511 406.797 438.568 406.321 439.348 405.473C440.128 404.625 440.567 403.475 440.567 402.275C440.567 401.076 440.128 399.926 439.348 399.078C438.568 398.23 437.511 397.754 436.408 397.754H435.871C448.077 360.45 450.258 303.077 450.8 242.424L468.157 319.075L510.104 389.651C509.034 389.742 508.038 390.28 507.325 391.152C506.612 392.024 506.238 393.163 506.281 394.329C506.324 395.495 506.781 396.597 507.556 397.404C508.331 398.212 509.364 398.661 510.437 398.658H531.232C532.199 398.659 533.136 398.293 533.882 397.624C534.628 396.954 535.135 396.022 535.317 394.99C535.498 393.957 535.343 392.887 534.877 391.966C534.412 391.044 533.665 390.328 532.765 389.941V389.941Z" fill="#2F2E41"/>
<path id="Vector_9" d="M486.881 185.561H486.881C486.708 184.823 486.325 184.164 485.786 183.677C485.248 183.191 484.581 182.902 483.882 182.853C478.224 176.608 473.984 121.188 478.435 117.358L478.428 117.289L477.102 86.4888C477.054 85.3702 476.628 84.3101 475.907 83.5109C475.185 82.7118 474.218 82.2297 473.191 82.1566L466.186 81.6589C466.09 81.6553 465.999 81.6113 465.932 81.5362C465.865 81.4611 465.828 81.3607 465.828 81.2561C465.828 80.4151 465.676 79.5824 465.38 78.8054C465.084 78.0284 464.65 77.3224 464.103 76.7277C463.556 76.133 462.907 75.6613 462.192 75.3395C461.477 75.0177 460.711 74.852 459.938 74.852H439.2C437.857 74.8526 436.56 75.3861 435.553 76.3525C434.546 77.3189 433.898 78.6517 433.731 80.1007C433.722 80.2005 433.678 80.2928 433.609 80.3592C433.54 80.4256 433.45 80.4613 433.358 80.459L433.356 80.4589C430.999 80.4061 428.704 81.2735 426.885 82.9036C425.067 84.5338 423.846 86.8186 423.445 89.3436C420.609 107.278 421.948 144.707 424.758 167.336C425.735 175.213 418.27 190.337 417.9 196.928C417.864 197.565 417.943 198.204 418.134 198.807C418.324 199.411 418.623 199.968 419.011 200.446C418.184 200.705 417.482 201.303 417.053 202.114C416.624 202.925 416.501 203.886 416.71 204.793H416.71C416.926 205.724 417.473 206.523 418.23 207.015C418.988 207.507 419.894 207.651 420.75 207.417L484.468 189.953C485.324 189.718 486.059 189.124 486.511 188.3C486.964 187.477 487.097 186.491 486.881 185.561Z" fill="#E6E6E6"/>
<path id="Vector_10" d="M349.829 109.596C350.934 109.127 352.121 108.926 353.306 109.01C354.49 109.093 355.643 109.457 356.684 110.077C357.725 110.698 358.628 111.558 359.33 112.599C360.031 113.64 360.515 114.835 360.746 116.101L424.773 131.072L414.874 143.314L353.804 126.683C351.823 126.964 349.815 126.445 348.162 125.224C346.509 124.003 345.326 122.166 344.836 120.059C344.346 117.953 344.584 115.725 345.504 113.796C346.424 111.868 347.963 110.373 349.829 109.596V109.596Z" fill="#EECAD0"/>
<path id="Vector_11" d="M434.106 147.953C424.221 153.579 364.505 131.57 361.897 130.604L361.233 130.358L373.514 118.085L420.76 125.607L422.192 95.5299C422.353 92.2111 423.455 89.0278 425.345 86.416C427.236 83.8043 429.822 81.8918 432.751 80.9406C435.345 80.1019 438.101 80.0526 440.719 80.798C443.337 81.5435 445.717 83.0552 447.599 85.1687C449.482 87.2822 450.796 89.9166 451.397 92.7853C451.999 95.6539 451.866 98.6471 451.012 101.439L439.321 139.659C438.42 142.593 436.881 145.247 434.835 147.396C434.618 147.619 434.373 147.806 434.106 147.953Z" fill="#E6E6E6"/>
<path id="Vector_12" d="M379.509 451.305H9.91487L9.82328 450.988L9.7317 450.671C8.5234 446.494 7.41849 442.26 6.42392 437.998C5.42936 433.737 4.54518 429.448 3.77837 425.161C2.7362 419.341 1.90115 413.46 1.27751 407.559C0.653879 401.659 0.241635 395.739 0.0450574 389.841C-0.296423 379.386 1.30592 368.963 4.75615 359.198C8.20638 349.432 13.4336 340.523 20.1248 333.006C26.816 325.488 34.8336 319.515 43.6976 315.445C52.5617 311.376 62.09 309.292 71.712 309.32H324.718C334.779 309.301 344.731 311.588 353.925 316.031C363.119 320.475 371.348 326.975 378.076 335.109C384.803 343.242 389.879 352.826 392.971 363.236C396.064 373.645 397.103 384.646 396.023 395.522V395.523C395.301 402.555 394.091 409.517 392.402 416.349C390.656 423.417 388.451 430.342 385.805 437.071C384.905 439.364 383.947 441.662 382.932 443.965C381.919 446.262 380.857 448.549 379.743 450.825L379.626 451.065L379.509 451.305Z" fill="#E6E6E6"/>
<path id="Vector_13" d="M327.438 337.807H62.0964C56.2503 337.807 50.6437 335.282 46.51 330.788C42.3762 326.294 40.0539 320.198 40.0539 313.842C40.0539 307.486 42.3762 301.39 46.51 296.896C50.6437 292.401 56.2503 289.876 62.0964 289.876H327.438C333.284 289.876 338.891 292.401 343.024 296.896C347.158 301.39 349.48 307.486 349.48 313.842C349.48 320.198 347.158 326.294 343.024 330.788C338.891 335.282 333.284 337.807 327.438 337.807Z" fill="#F6869A"/>
<path id="Vector_14" d="M330.785 321.233H60.6972L60.5144 320.6C56.3358 306.188 53.9543 291.232 53.4336 276.132C53.1943 268.471 54.3765 260.835 56.9096 253.682C59.4428 246.528 63.275 240.002 68.1777 234.493C73.0805 228.984 78.9534 224.606 85.4462 221.618C91.9391 218.63 98.9188 217.094 105.969 217.102H290.656C298.03 217.094 305.323 218.774 312.061 222.033C318.798 225.293 324.828 230.058 329.759 236.02C334.69 241.981 338.411 249.005 340.679 256.633C342.948 264.262 343.713 272.324 342.926 280.296C341.565 293.796 337.56 307.408 331.02 320.754L330.785 321.233Z" fill="#E6E6E6"/>
<path id="Vector_15" d="M294.166 247.371H98.6953C92.8492 247.371 87.2426 244.847 83.1089 240.352C78.9751 235.858 76.6528 229.762 76.6528 223.406C76.6528 217.05 78.9751 210.954 83.1089 206.46C87.2426 201.965 92.8492 199.44 98.6953 199.44H294.166C300.012 199.44 305.619 201.965 309.753 206.46C313.886 210.954 316.209 217.05 316.209 223.406C316.209 229.762 313.886 235.858 309.753 240.352C305.619 244.847 300.012 247.371 294.166 247.371V247.371Z" fill="#F6869A"/>
<path id="Vector_16" d="M307.184 163.076C303.086 158.111 298.074 154.139 292.472 151.419C286.87 148.699 280.804 147.29 274.669 147.286H121.96C116.112 147.28 110.323 148.554 104.938 151.032C99.5524 153.511 94.6812 157.143 90.6145 161.712C86.5478 166.281 83.369 171.694 81.2676 177.627C79.1661 183.561 78.1851 189.893 78.3829 196.248C78.8122 208.75 80.7817 221.132 84.2387 233.064L84.4217 233.698H307.932L308.165 233.218C313.386 222.832 316.732 211.456 318.022 199.703C318.682 193.112 318.058 186.445 316.19 180.135C314.323 173.824 311.254 168.012 307.184 163.076V163.076Z" fill="#E6E6E6"/>
<path id="Vector_17" d="M271.883 147.286H127.633C126.562 150.882 126.288 154.703 126.834 158.437C127.38 162.17 128.731 165.71 130.776 168.768C132.82 171.825 135.501 174.314 138.6 176.029C141.698 177.745 145.126 178.64 148.603 178.64H250.913C254.39 178.64 257.818 177.745 260.916 176.029C264.014 174.314 266.696 171.825 268.74 168.768C270.785 165.71 272.136 162.17 272.682 158.437C273.228 154.703 272.954 150.882 271.883 147.286V147.286Z" fill="#F6869A"/>
<path id="Vector_18" d="M385.04 436.717C383.243 441.293 381.233 445.854 379.009 450.4H10.5253C8.11092 442.057 6.13088 433.573 4.5946 424.988C5.28157 424.407 6.07577 423.995 6.92283 423.78C7.76988 423.565 8.64976 423.551 9.50217 423.74C11.2581 424.344 12.7758 425.574 13.8108 427.23C16.9134 431.608 18.211 437.151 19.4338 442.523C20.7397 439.358 22.0955 436.111 24.3746 433.669C25.2817 432.647 26.3739 431.841 27.5823 431.3C28.7906 430.76 30.0888 430.498 31.3949 430.531C32.3181 428.736 33.6354 427.217 35.2295 426.109C37.467 424.662 40.5197 424.463 42.5576 426.209C43.9252 427.55 44.8366 429.353 45.1445 431.327C46.284 436.717 45.3358 442.342 44.3875 447.787C46.7914 445.49 49.2702 443.156 52.2729 441.972C53.632 441.431 55.0788 441.2 56.5234 441.293C56.806 438.285 57.5364 435.347 58.686 432.593C59.6585 429.954 61.3397 427.695 63.5104 426.109C65.7479 424.662 68.8006 424.463 70.8385 426.209C72.2061 427.55 73.1176 429.353 73.4254 431.327C74.5649 436.717 73.6167 442.342 72.6685 447.787C75.0723 445.49 77.5511 443.156 80.5539 441.972C81.9129 441.431 83.3597 441.2 84.8043 441.293C85.087 438.285 85.8174 435.347 86.967 432.593C87.9394 429.954 89.6206 427.695 91.7913 426.109C94.0289 424.662 97.0815 424.463 99.1194 426.209C100.487 427.55 101.399 429.353 101.706 431.327C102.846 436.717 101.898 442.342 100.949 447.787C103.353 445.49 105.832 443.156 108.835 441.972C110.194 441.431 111.641 441.2 113.085 441.293C113.368 438.285 114.098 435.347 115.248 432.593C116.22 429.954 117.902 427.695 120.072 426.109C122.31 424.662 125.362 424.463 127.4 426.209C128.768 427.55 129.679 429.353 129.987 431.327C131.127 436.717 130.179 442.342 129.23 447.787C131.634 445.49 134.113 443.156 137.116 441.972C138.475 441.431 139.922 441.2 141.366 441.293C141.649 438.285 142.379 435.347 143.529 432.593C144.501 429.954 146.182 427.695 148.353 426.109C150.591 424.662 153.643 424.463 155.681 426.209C157.049 427.55 157.96 429.353 158.268 431.327C159.408 436.717 158.459 442.342 157.511 447.787C159.915 445.49 162.394 443.156 165.397 441.972C166.756 441.431 168.202 441.2 169.647 441.293C169.93 438.285 170.66 435.347 171.81 432.593C172.782 429.954 174.463 427.695 176.634 426.109C178.872 424.662 181.924 424.463 183.962 426.209C185.33 427.55 186.241 429.353 186.549 431.327C187.689 436.717 186.74 442.342 185.792 447.787C188.196 445.49 190.675 443.156 193.678 441.972C195.037 441.431 196.483 441.2 197.928 441.293C198.211 438.285 198.941 435.347 200.091 432.593C201.063 429.954 202.744 427.695 204.915 426.109C207.153 424.662 210.205 424.463 212.243 426.209C213.611 427.55 214.522 429.353 214.83 431.327C215.97 436.717 215.021 442.342 214.073 447.787C216.477 445.49 218.956 443.156 221.958 441.972C223.317 441.431 224.764 441.2 226.209 441.293C226.492 438.285 227.222 435.347 228.372 432.593C229.344 429.954 231.025 427.695 233.196 426.109C235.434 424.662 238.486 424.463 240.524 426.209C241.892 427.55 242.803 429.353 243.111 431.327C244.25 436.717 243.302 442.342 242.354 447.787C244.758 445.49 247.237 443.156 250.239 441.972C251.598 441.431 253.045 441.2 254.49 441.293C254.773 438.285 255.503 435.347 256.653 432.593C257.625 429.954 259.306 427.695 261.477 426.109C263.714 424.662 266.767 424.463 268.805 426.209C270.173 427.55 271.084 429.353 271.392 431.327C272.531 436.717 271.583 442.342 270.635 447.787C273.039 445.49 275.518 443.156 278.52 441.972C279.879 441.431 281.326 441.2 282.771 441.293C283.053 438.285 283.784 435.347 284.933 432.593C285.906 429.954 287.587 427.695 289.758 426.109C291.995 424.662 295.048 424.463 297.086 426.209C298.454 427.55 299.365 429.353 299.673 431.327C300.812 436.717 299.864 442.342 298.916 447.787C301.32 445.49 303.798 443.156 306.801 441.972C308.16 441.431 309.607 441.2 311.052 441.293C311.334 438.285 312.065 435.347 313.214 432.593C314.187 429.954 315.868 427.695 318.039 426.109C320.276 424.662 323.329 424.463 325.367 426.209C326.734 427.55 327.646 429.353 327.954 431.327C329.093 436.717 328.145 442.342 327.197 447.787C329.601 445.49 332.079 443.156 335.082 441.972C336.441 441.431 337.888 441.2 339.333 441.293C339.615 438.285 340.346 435.347 341.495 432.593C342.468 429.954 344.149 427.695 346.32 426.109C348.557 424.662 351.61 424.463 353.648 426.209C355.015 427.55 355.927 429.353 356.235 431.327C357.374 436.717 356.426 442.342 355.478 447.787C357.882 445.49 360.36 443.156 363.363 441.972C364.722 441.431 366.169 441.2 367.614 441.293C367.896 438.285 368.627 435.347 369.776 432.593C370.749 429.954 372.43 427.695 374.601 426.109C376.838 424.662 379.891 424.463 381.929 426.209C383.296 427.55 384.208 429.353 384.516 431.327C384.877 433.097 385.053 434.905 385.04 436.717V436.717Z" fill="#CCCCCC"/>
<path id="Vector_19" d="M84.0256 176.702C89.862 173.903 96.9008 174.964 102.111 178.828C107.597 182.897 110.15 190.063 109.484 197.134C109.114 201.191 107.601 205.025 105.153 208.112L106.035 207.715C103.318 207.679 101.83 204.223 102.243 201.612C102.802 198.077 106.516 196.248 109.467 195.982C113.484 195.621 117.347 197.515 120.969 199.15C124.857 200.917 128.84 202.429 132.895 203.675C141.143 206.179 149.645 207.557 158.206 207.779C162.426 207.889 166.649 207.71 170.848 207.241C174.686 206.812 178.619 206.282 182.219 204.694C185.858 203.089 189.001 200.449 190.556 196.437C191.322 194.66 191.632 192.691 191.453 190.738C191.274 188.786 190.614 186.922 189.541 185.344C189.386 185.178 189.194 185.059 188.983 184.999C188.773 184.938 188.552 184.938 188.342 184.998C188.131 185.059 187.939 185.177 187.784 185.343C187.628 185.509 187.515 185.715 187.456 185.943C186.88 189.039 186.904 192.231 187.526 195.316C188.148 198.401 189.355 201.312 191.07 203.862C192.891 206.582 195.254 208.821 197.981 210.412C200.709 212.002 203.731 212.904 206.823 213.049C213.883 213.464 220.787 210.489 226.918 206.965C233.325 203.283 239.17 198.565 245.685 195.086C251.969 191.731 259.207 189.26 266.198 191.273C271.77 192.877 277.66 198.169 275.821 205.124C275.111 207.811 273.129 210.073 270.437 210.064C268.153 210.057 265.518 208.487 265.242 205.801C264.911 202.582 267.747 200.054 270.27 199.104C273.884 197.744 277.915 198.763 281.611 199.105C287.68 199.696 293.736 197.834 298.622 193.875C303.334 190.146 306.767 184.815 308.378 178.725C308.757 177.174 309.003 175.588 309.113 173.987C309.241 172.246 306.745 172.255 306.617 173.987C306.31 177.251 305.409 180.417 303.969 183.301C302.529 186.185 300.576 188.73 298.226 190.788C295.886 192.911 293.185 194.514 290.277 195.504C287.117 196.485 283.805 196.75 280.546 196.282C276.798 195.867 272.768 195.122 269.148 196.672C266.376 197.859 263.699 200.213 262.939 203.48C261.46 209.837 268.151 214.443 273.28 212.191C279.034 209.664 279.922 201.224 276.858 196.055C273.174 189.842 265.822 187.425 259.329 187.888C243.901 188.987 232.707 202.429 218.784 208.025C212.215 210.666 204.627 211.687 198.346 207.598C195.802 205.878 193.675 203.522 192.14 200.725C190.606 197.929 189.709 194.773 189.525 191.523C189.44 189.894 189.553 188.26 189.862 186.664L187.776 187.263C189.331 189.449 189.266 192.435 188.438 194.925C187.43 197.713 185.502 199.991 183.03 201.314C180.313 202.758 177.388 203.686 174.382 204.057C171.051 204.582 167.695 204.904 164.331 205.022C150.793 205.562 137.294 203.122 124.645 197.851C118.945 195.47 112.904 191.797 106.628 193.822C101.897 195.349 98.2704 200.268 100.248 205.704C100.61 206.839 101.229 207.856 102.047 208.663C102.866 209.469 103.858 210.039 104.933 210.319C105.502 210.505 106.111 210.478 106.665 210.243C107.171 209.813 107.6 209.285 107.93 208.685C108.769 207.489 109.485 206.197 110.065 204.832C112.274 199.606 112.683 193.692 111.218 188.166C107.742 175.337 93.8329 169.051 82.7661 174.36C81.3 175.063 82.5684 177.401 84.0256 176.702L84.0256 176.702Z" fill="#3F3D56"/>
<path id="Vector_20" d="M56.7343 257.526C60.3065 266.882 65.746 275.259 72.6596 282.05C79.5732 288.841 87.7882 293.877 96.7108 296.795C99.751 297.799 102.868 298.503 106.025 298.897C109.031 299.25 112.33 299.044 114.82 296.97C118.404 293.984 118.327 285.446 112.65 285.509C109.843 285.54 107.495 288.335 107.146 291.238C106.739 294.627 108.676 297.793 110.998 299.841C116.092 304.333 123.081 304.888 129.292 303.482C136.424 301.867 142.674 297.483 148.928 293.642C156.089 289.243 164.599 284.825 173.022 287.182C179.41 288.969 185.235 296.259 183.152 303.702L184.985 302.891C182.212 301.525 181.538 297.746 182.627 294.856C183.99 291.238 187.975 289.887 191.28 289.889C195.639 289.893 199.665 292.092 203.533 294.03C207.093 295.852 210.792 297.334 214.588 298.46C229.558 302.691 245.414 301.162 259.466 294.132C262.915 292.435 266.198 290.363 269.264 287.95C271.69 286.004 274.493 282.6 272.537 279.184C272.178 278.519 271.673 277.96 271.068 277.556C270.462 277.153 269.775 276.917 269.066 276.87C267.359 276.861 266.61 278.151 266.077 279.724C265.024 283.074 265.012 286.707 266.044 290.065C268.21 297.505 273.984 302.641 280.831 304.516C288.403 306.589 296.557 305.175 303.879 302.613C317.878 297.666 329.936 287.738 338.111 274.429C339.133 272.757 340.077 271.033 340.959 269.27C341.726 267.736 339.572 266.365 338.804 267.901C332.089 281.211 321.495 291.716 308.688 297.764C296.935 303.313 277.478 307.4 269.792 292.663C268.2 289.757 267.527 286.365 267.876 283.005C268.015 281.941 268.329 278.862 269.764 279.867C271.39 281.005 270.507 283.015 269.472 284.216C267.142 286.924 263.619 288.826 260.616 290.509C257.397 292.309 254.038 293.797 250.578 294.955C236.562 299.709 221.468 299.071 207.834 293.148C200.599 289.926 192.342 284.209 184.499 288.935C183.078 289.751 181.881 290.962 181.029 292.444C180.177 293.926 179.701 295.627 179.65 297.373C179.563 300.578 180.953 303.868 183.726 305.234C183.892 305.334 184.076 305.392 184.266 305.405C184.455 305.417 184.645 305.383 184.82 305.306C184.996 305.228 185.154 305.108 185.282 304.955C185.409 304.803 185.504 304.621 185.558 304.423C187.119 298.845 184.959 293.008 181.172 289.12C176.717 284.547 170.653 283.237 164.707 284.13C151.202 286.157 141.41 298.199 128.191 300.961C122.488 302.153 115.452 301.484 111.349 296.473C109.516 294.235 108.481 289.702 111.908 288.383C114.422 287.416 115.209 290.658 114.648 292.652C112.916 298.814 103.345 295.899 99.3738 294.782C93.9117 293.235 88.6817 290.846 83.843 287.686C72.7716 280.545 64.1099 269.716 59.1406 256.805C58.5418 255.21 56.1268 255.908 56.7344 257.526H56.7343Z" fill="#CCCCCC"/>
<path id="Vector_21" d="M3.37085 372.595C22.5003 368.675 46.0203 364.727 60.3698 382.794C63.2159 386.302 65.1826 390.549 66.08 395.124C66.4595 397.181 66.9357 399.463 65.0148 400.735C64.2753 401.199 63.4399 401.452 62.5861 401.472C61.7324 401.491 60.888 401.275 60.1313 400.845C55.9403 398.317 58.2752 391.592 61.4297 389.388C65.7254 386.388 71.2516 387.669 75.6605 389.622C80.4437 391.742 84.9681 394.45 89.8081 396.447C94.3831 398.332 99.0738 399.867 103.846 401.04C113.731 403.475 123.88 404.397 134 403.782C143.814 403.295 153.506 401.222 162.758 397.631C166.298 396.195 169.982 394.12 172.139 390.611C173.13 389.052 173.638 387.189 173.59 385.294C173.541 383.399 172.938 381.57 171.868 380.072C170.743 378.428 169.123 377.265 167.29 376.786C165.457 376.307 163.528 376.543 161.838 377.452C160.275 378.369 159.005 379.781 158.196 381.501C157.532 382.916 156.666 385.717 157.514 387.208C157.944 387.966 158.998 388.267 159.687 388.635C160.843 389.251 162.007 389.845 163.181 390.418C165.234 391.421 167.311 392.362 169.413 393.242C174.015 395.163 178.721 396.774 183.505 398.064C202.329 403.123 221.973 403.388 240.906 398.837C245.613 397.702 250.254 396.258 254.801 394.513C259.1 392.862 263.638 391.096 267.591 388.595C270.707 386.623 274.36 383.236 274.067 378.899C273.949 377.315 273.267 375.842 272.166 374.795C271.065 373.748 269.632 373.21 268.172 373.294C266.672 373.299 265.203 373.757 263.929 374.619C262.655 375.48 261.627 376.709 260.96 378.17C259.267 382.346 260.961 387.102 263.431 390.435C268.766 397.634 277.867 400.219 286.032 400.131C295.494 400.029 304.464 396.78 313.239 393.246C323.068 389.289 333.327 384.896 344.005 385.598C353.626 386.231 362.692 392.419 372.462 391.134C380.943 390.019 385.921 382.641 388.121 374.24C389.115 370.144 389.795 365.965 390.153 361.747C390.331 360.015 387.834 360.029 387.658 361.747C386.809 369.994 385.52 380.453 378.813 385.689C370.68 392.04 360.09 386.443 351.565 384.187C341.731 381.585 332.079 383.359 322.599 386.736C313.26 390.062 304.27 394.609 294.543 396.507C286.093 398.156 276.741 397.973 269.372 392.62C265.751 389.99 261.433 384.819 263.099 379.64C264.051 376.681 269.008 374.26 271.021 377.365C273.986 381.936 266.533 386.269 263.669 387.702C259.285 389.888 254.778 391.769 250.174 393.334C220.047 403.553 187.451 400.692 159.221 385.352L159.839 386.524C159.359 381.839 163.736 377.443 167.915 379.908C171.894 382.255 171.868 387.408 168.898 390.64C165.974 393.823 161.779 395.24 157.919 396.5C153.659 397.891 149.322 398.982 144.933 399.767C126.503 403.032 107.606 400.939 90.1601 393.701C82.3462 390.446 74.2543 383.834 65.4949 385.065C62.0008 385.556 58.6221 387.399 56.8061 390.794C55.2055 393.787 54.8612 397.72 56.5626 400.749C59.2779 405.585 68.7876 405.362 68.9519 398.579C69.1391 390.853 64.6548 383.138 59.6454 378.075C44.0443 362.308 21.7852 366.07 2.70743 369.979C1.13123 370.302 1.79872 372.917 3.3708 372.595L3.37085 372.595Z" fill="#CCCCCC"/>
<path id="Vector_22" d="M245.091 108.552H242.595C243.906 111.453 243.37 115.866 243.188 119.01C242.985 122.525 242.705 126.036 242.461 129.547C241.911 137.444 241.361 145.34 240.811 153.237C240.689 154.978 243.185 154.97 243.306 153.237L244.769 132.229C245.018 128.653 245.268 125.078 245.517 121.502C245.718 117.18 245.576 112.847 245.091 108.552V108.552Z" fill="#3F3D56"/>
<path id="Vector_23" d="M245.267 108.86C245.794 107.17 245.982 105.377 245.818 103.602C245.655 101.826 245.145 100.109 244.321 98.5659C244.148 98.2683 243.876 98.0553 243.561 97.9719C243.247 97.8884 242.915 97.9411 242.635 98.1187C242.356 98.2963 242.151 98.5851 242.063 98.924C241.976 99.2629 242.013 99.6255 242.166 99.9353C242.826 101.164 243.23 102.536 243.35 103.953C243.47 105.37 243.303 106.799 242.861 108.139C242.773 108.485 242.816 108.856 242.98 109.168C243.143 109.481 243.414 109.71 243.733 109.806C244.052 109.901 244.392 109.855 244.68 109.678C244.968 109.501 245.179 109.206 245.267 108.86H245.267Z" fill="#3F3D56"/>
<path id="Vector_24" d="M147.771 105.839H145.276C146.586 108.74 146.05 113.153 145.868 116.297C145.665 119.812 145.386 123.323 145.141 126.834C144.591 134.731 144.041 142.627 143.491 150.524C143.37 152.265 145.866 152.257 145.986 150.524L147.45 129.516C147.699 125.94 147.948 122.365 148.197 118.789C148.399 114.467 148.256 110.134 147.771 105.839Z" fill="#3F3D56"/>
<path id="Vector_25" d="M147.947 106.147C148.474 104.457 148.662 102.664 148.499 100.888C148.336 99.1131 147.825 97.3961 147.001 95.8528C146.828 95.5552 146.556 95.3422 146.242 95.2588C145.927 95.1753 145.595 95.228 145.315 95.4056C145.036 95.5833 144.831 95.872 144.743 96.2109C144.656 96.5498 144.693 96.9124 144.847 97.2222C145.507 98.4514 145.911 99.8228 146.031 101.24C146.151 102.657 145.984 104.086 145.541 105.425C145.454 105.772 145.496 106.143 145.66 106.455C145.823 106.768 146.094 106.997 146.413 107.092C146.732 107.188 147.073 107.142 147.36 106.965C147.648 106.787 147.859 106.493 147.947 106.147H147.947Z" fill="#3F3D56"/>
<g id="allflames">
<path id="flame3" d="M245.28 109.231C251.348 108.105 253.949 100.145 252.524 94.2835C251.597 90.4725 249.422 87.2018 247.004 84.3348C244.2 81.0082 241.088 77.9703 238.1 74.8424C234.445 71.0177 230.791 67.193 227.136 63.3683C226.981 63.2036 226.789 63.0855 226.579 63.0255C226.369 62.9655 226.148 62.9657 225.938 63.026C225.728 63.0862 225.536 63.2045 225.381 63.3694C225.225 63.5343 225.112 63.7401 225.051 63.9669C223.471 75.1639 225.95 86.5908 231.966 95.8396C233.503 98.1498 235.234 100.3 237.136 102.263C238.993 104.203 240.983 106.134 242.136 108.686L245.492 111.362C245.381 110.645 245.215 109.939 244.994 109.252C245.09 109.256 245.185 109.248 245.28 109.231V109.231Z" fill="#FD6584"/>
<path id="flame1" d="M147.96 106.518C154.028 105.392 156.63 97.4317 155.204 91.5704C154.277 87.7594 152.102 84.4888 149.685 81.6217C146.88 78.2951 143.769 75.2572 140.78 72.1293C137.126 68.3046 133.471 64.4799 129.817 60.6552C129.661 60.4905 129.469 60.3725 129.259 60.3125C129.049 60.2525 128.828 60.2526 128.618 60.3129C128.408 60.3731 128.216 60.4915 128.061 60.6563C127.906 60.8212 127.792 61.0271 127.731 61.2538C126.151 72.4508 128.63 83.8777 134.646 93.1265C136.184 95.4367 137.914 97.5871 139.816 99.55C141.673 101.49 143.663 103.421 144.816 105.973L148.173 108.649C148.062 107.932 147.895 107.226 147.674 106.539C147.77 106.543 147.866 106.535 147.96 106.518V106.518Z" fill="#FD6584"/>
<path id="flame2" d="M193.709 101.996C199.777 100.87 202.378 92.9099 200.952 87.0486C200.025 83.2376 197.85 79.967 195.433 77.0999C192.628 73.7733 189.517 70.7354 186.529 67.6075C182.874 63.7828 179.22 59.9581 175.565 56.1334C175.41 55.9687 175.218 55.8507 175.008 55.7907C174.798 55.7307 174.577 55.7308 174.367 55.7911C174.157 55.8514 173.965 55.9697 173.809 56.1346C173.654 56.2994 173.541 56.5053 173.48 56.732C171.9 67.929 174.379 79.3559 180.395 88.6047C181.932 90.9149 183.663 93.0653 185.565 95.0282C187.421 96.9681 189.412 98.8994 190.565 101.452L193.921 104.127C193.81 103.41 193.643 102.704 193.423 102.017C193.519 102.021 193.614 102.013 193.709 101.996V101.996Z" fill="#FD6584"/>
</g>
<path id="Vector_26" d="M193.52 101.318H191.024C192.335 104.218 191.799 108.631 191.617 111.775C191.413 115.29 191.134 118.801 190.89 122.313C190.34 130.209 189.79 138.105 189.24 146.002C189.118 147.743 191.614 147.735 191.735 146.002L193.198 124.994C193.447 121.419 193.696 117.843 193.946 114.267C194.147 109.945 194.005 105.613 193.52 101.318V101.318Z" fill="#3F3D56"/>
<path id="Vector_27" d="M228.806 263.411C228.19 260.856 225.84 258.699 223.45 259.171C221.53 259.55 220.114 261.464 219.583 263.506C219.171 265.585 219.117 267.73 219.424 269.831C217.282 267.38 215.052 264.864 212.184 263.557C211.175 263.017 210.027 262.864 208.928 263.123C208.18 263.419 207.529 263.949 207.056 264.645C206.583 265.342 206.309 266.174 206.269 267.039C206.218 268.775 206.649 270.488 207.505 271.955C208.702 274.202 210.345 276.13 212.314 277.599C214.283 279.067 216.528 280.04 218.887 280.446L218.114 279.349C222.04 277.86 225.348 274.894 227.439 270.987C228.653 268.699 229.421 265.965 228.806 263.411Z" fill="#FD6584"/>
<path id="Vector_28" d="M115.682 370.125C115.066 367.57 112.716 365.413 110.326 365.885C108.406 366.264 106.991 368.178 106.46 370.22C106.047 372.3 105.993 374.444 106.301 376.545C104.158 374.095 101.929 371.578 99.0603 370.271C98.0511 369.731 96.9038 369.579 95.8046 369.837C95.0567 370.134 94.4057 370.663 93.9328 371.36C93.4598 372.056 93.1859 372.888 93.1451 373.753C93.0942 375.49 93.5249 377.203 94.3814 378.67C95.5783 380.916 97.2211 382.844 99.1902 384.313C101.159 385.782 103.405 386.754 105.763 387.16L104.991 386.063C108.917 384.574 112.224 381.608 114.316 377.701C115.529 375.414 116.298 372.679 115.682 370.125Z" fill="#FD6584"/>
<path id="Vector_29" d="M135.645 210.958C135.03 208.403 132.679 206.246 130.289 206.718C128.369 207.097 126.954 209.011 126.423 211.053C126.01 213.133 125.956 215.277 126.264 217.378C124.121 214.928 121.892 212.411 119.023 211.104C118.014 210.564 116.867 210.411 115.768 210.67C115.02 210.967 114.369 211.496 113.896 212.192C113.423 212.889 113.149 213.721 113.108 214.586C113.057 216.322 113.488 218.035 114.344 219.502C115.541 221.749 117.184 223.677 119.153 225.146C121.122 226.614 123.368 227.587 125.726 227.993L124.954 226.896C128.88 225.407 132.187 222.441 134.279 218.534C135.492 216.246 136.261 213.512 135.645 210.958Z" fill="#FD6584"/>
<g id="FullHeart">
<path id="Vector_30" d="M311.456 61.5452C309.398 71.3753 308.42 82.5199 313.909 91.3167C316.242 95.0905 319.666 97.9107 323.639 99.3309C327.661 100.627 331.901 100.91 336.038 100.159C345.4 98.7487 353.721 93.4467 362.929 91.3882C366.992 90.4798 371.304 90.1795 375.215 91.9278C378.146 93.2377 381.233 95.8714 381.247 99.6282C381.262 103.486 378.18 106.046 375.115 107.233C371.026 108.815 366.775 108.203 362.533 108.003C357.965 107.788 353.306 108.238 349.511 111.279C346.247 114.05 343.743 117.74 342.273 121.948C340.366 126.982 339.591 132.394 338.372 137.646C337.281 142.368 335.739 146.953 333.77 151.325C329.906 159.895 324.49 167.528 317.846 173.766C314.57 176.832 310.588 179.956 306.113 180.237C302.662 180.454 298.466 178.877 297.136 175.076C296.641 173.435 296.69 171.657 297.272 170.051C297.855 168.444 298.935 167.11 300.327 166.277C303.285 164.654 306.506 166.969 307.462 170.147C307.712 170.879 307.8 171.666 307.717 172.442C307.635 173.218 307.384 173.962 306.987 174.613C306.09 176.068 308.251 177.427 309.142 175.983C311.21 172.629 310.129 168.119 307.596 165.433C306.36 164.063 304.707 163.229 302.947 163.086C301.187 162.943 299.44 163.502 298.031 164.658C296.567 165.869 295.46 167.52 294.847 169.406C294.233 171.292 294.139 173.331 294.576 175.274C295.64 179.449 299.414 182.105 303.182 182.763C307.835 183.575 312.313 181.587 316.069 178.715C319.838 175.757 323.264 172.316 326.274 168.466C332.394 160.813 336.995 151.87 339.788 142.195C342.535 132.626 342.734 119.984 350.896 113.522C355.095 110.196 360.241 110.565 365.165 110.87C369.512 111.14 373.752 111.091 377.739 108.952C381.032 107.185 383.688 103.924 383.743 99.7701C383.799 95.5764 381.06 92.2043 377.833 90.2937C369.309 85.2463 359.073 89.317 350.699 92.6891C342.277 96.0802 332.662 100.06 323.713 96.4917C319.582 94.7465 316.256 91.2918 314.465 86.8849C312.298 81.888 311.99 76.2183 312.49 70.7954C312.785 67.9244 313.243 65.076 313.862 62.2665C314.218 60.5665 311.813 59.8408 311.456 61.5452V61.5452Z" fill="#3F3D56"/>
<path id="Heart" d="M326.751 33.9694C324.284 42.927 320.564 51.4187 315.722 59.1467C314.524 61.0459 313.265 62.8968 311.945 64.6995C310.92 62.6726 309.677 60.7845 308.244 59.0744C303.212 53.0604 296.466 49.1264 289.92 45.1834C283.373 41.2404 276.727 37.008 272.103 30.6142C270.027 27.736 268.541 24.4091 267.744 20.8562C266.696 16.0359 267.095 11.0077 269.682 6.98329C273.442 1.13209 280.936 -0.92984 287.308 0.761312C293.688 2.45246 299.028 7.27269 303.17 12.8074C301.814 6.00659 308.41 -0.559055 314.79 0.0378217C321.17 0.643742 326.286 6.70294 327.982 13.4133C329.688 20.1146 328.581 27.2952 326.751 33.9694Z" fill="#F6869A"/>
</g>
<path id="Vector_31" d="M468.324 187.42C469.51 187.386 470.675 187.068 471.737 186.491C472.798 185.914 473.73 185.09 474.467 184.079C475.205 183.068 475.729 181.893 476.003 180.637C476.277 179.382 476.295 178.076 476.055 176.812L499.998 160.213L486.5 153.12L465.875 169.997C463.949 170.576 462.286 171.903 461.199 173.727C460.113 175.55 459.68 177.744 459.982 179.891C460.284 182.039 461.3 183.992 462.837 185.379C464.375 186.767 466.327 187.493 468.324 187.421L468.324 187.42Z" fill="#EECAD0"/>
<path id="Vector_32" d="M473.204 106.644C473.204 106.644 459.151 94.2881 464.728 85.5214C470.305 76.7547 484.546 86.3009 484.546 86.3009L526.002 137.535C526.002 137.535 481.966 180.992 483.332 174.538C484.698 168.084 474.483 163.039 474.483 163.039L494.134 139.009L489.823 136.737L491.582 135.637L489.733 130.926L473.204 106.644Z" fill="#E6E6E6"/>
<path id="Vector_33" d="M486.047 21.2429C484.244 18.2364 482.255 15.0592 479.194 13.7159C476.133 12.3725 471.791 13.9788 471.375 17.5394C471.064 20.201 472.932 22.4872 474.338 24.6919C475.744 26.8966 476.659 30.2244 474.822 32.0162L473.789 32.5956C474.776 33.9829 476.049 35.0991 477.506 35.8547C478.962 36.6102 480.561 36.9841 482.174 36.9462C485.385 36.7252 488.481 34.1339 489.022 30.6856C489.55 27.3233 487.76 24.1001 486.047 21.2429Z" fill="#2F2E41"/>
</g>
</svg>
