<svg width="117" height="110" viewBox="0 0 117 110" fill="none" xmlns="http://www.w3.org/2000/svg">
<g id="miniCakes">
<path id="Vector" d="M93.9599 104.383H20.6387C18.6683 104.383 7.81427 99.5759 7.81427 93.6464L7.81427 59.5477C7.46361 33.7561 108.321 32.0679 108.701 59.5477V93.6464C108.701 99.5759 101.043 104.383 93.9599 104.383Z" fill="#E6E6E6"/>
<path id="CakeCream" d="M97.754 36.4343C94.1973 35.3689 90.4202 34.9157 86.6492 35.1018C87.6577 34.8226 88.5843 34.368 89.3682 33.7679C88.6789 33.7448 87.9938 33.6675 87.3218 33.5371C86.5812 33.4207 85.884 33.1595 85.2869 32.7749C84.9913 32.58 84.7584 32.3264 84.6094 32.0371C84.4605 31.7479 84.4 31.4321 84.4336 31.1183C84.5706 30.3384 85.4411 29.6963 85.3517 28.9116C85.2493 28.0122 84.0098 27.5746 83.3465 26.862C82.9421 26.3251 82.7575 25.6926 82.8206 25.0601C82.8838 24.4276 83.1912 23.8294 83.6964 23.3562C84.3268 22.7417 85.0982 22.2397 85.965 21.8799C84.5013 21.5651 82.9635 21.5837 81.5113 21.9339C82.2728 21.4404 82.8452 20.7711 83.1578 20.0086C83.4704 19.246 83.5096 18.4235 83.2706 17.6425C82.8659 16.6641 82.1796 15.7842 81.2724 15.0804C80.3652 14.3766 79.265 13.8707 78.0689 13.6073C75.6726 13.1017 73.1923 12.9339 70.7301 13.1111C72.8229 12.5728 72.5074 9.82806 70.9077 8.5767C69.308 7.32534 67.0201 6.8028 65.5116 5.47444C64.0031 4.14609 64.1252 1.31039 66.2986 1.08979L66.0314 0.442509C64.9086 0.0914873 63.7088 -0.05346 62.5133 0.0174556C61.3178 0.0883711 60.1544 0.373546 59.1019 0.853597C58.0495 1.33365 57.1325 1.99738 56.4131 2.79991C55.6937 3.60244 55.1887 4.525 54.9323 5.50513C54.5341 7.58207 55.276 9.87942 54.0312 11.7067C52.4442 14.0364 48.5918 14.3 45.4031 14.0418C42.2725 13.3696 38.9519 13.749 36.151 15.099C35.2792 15.7069 34.6554 16.5271 34.3664 17.4456C34.0773 18.364 34.1374 19.3351 34.5382 20.2236C34.939 21.1122 35.6605 21.8742 36.6026 22.4035C37.5446 22.9328 38.6603 23.2031 39.7944 23.1769C37.6963 23.1891 35.6081 23.4199 33.5781 23.8639L35.5333 24.4982C35.9682 24.6108 36.3696 24.7995 36.7108 25.0519C36.8781 25.181 36.9934 25.3505 37.0405 25.5368C37.0876 25.7232 37.0642 25.9172 36.9736 26.092C36.661 26.5665 35.8534 26.5501 35.2132 26.4695L30.9624 25.9342C31.1908 25.998 31.3992 26.1037 31.5724 26.2437C31.7456 26.3836 31.8791 26.5543 31.9634 26.743C32.0476 26.9318 32.0803 27.1339 32.0591 27.3346C32.0379 27.5354 31.9634 27.7296 31.8409 27.9031C31.7185 28.0766 31.5512 28.225 31.3513 28.3373C31.1515 28.4497 30.9242 28.5232 30.6861 28.5525C30.4479 28.5818 30.205 28.566 29.975 28.5065C29.745 28.447 29.5339 28.3452 29.357 28.2085C29.7936 28.6353 30.1446 29.1185 30.3963 29.6394C30.5194 29.9011 30.5657 30.1836 30.5313 30.4634C30.497 30.7431 30.3831 31.012 30.1991 31.2473C29.7775 31.5707 29.2457 31.7757 28.6782 31.8335C28.1106 31.8914 27.5356 31.7992 27.0337 31.5698C26.6877 31.4585 26.3395 31.3287 25.9887 31.2101C25.9957 31.313 26.0051 31.4162 26.0195 31.5194C26.1357 32.1956 26.4186 32.8442 26.8503 33.424C27.2821 34.0037 27.8532 34.5019 28.5273 34.887C26.6002 35.0748 24.8258 35.8571 23.5505 37.0811C22.4734 38.2011 21.8593 39.5833 21.8003 41.0203C21.7412 42.4573 22.2404 43.8715 23.2229 45.0508C21.0785 44.2569 18.7287 43.931 16.393 44.1035C15.2331 44.223 14.166 44.695 13.3944 45.4299C12.6228 46.1647 12.2005 47.1112 12.2076 48.0896C12.5946 50.5702 16.2637 51.4772 19.2292 51.7847C42.5485 54.1875 66.132 54.1851 89.4506 51.7776C92.6186 51.5984 95.7211 50.9376 98.6064 49.8277C100.042 49.2588 101.283 48.3953 102.214 47.3174C103.144 46.2395 103.734 44.9822 103.929 43.6623C103.868 42.0816 103.248 40.5516 102.149 39.2653C101.05 37.9789 99.521 36.9938 97.754 36.4343Z" fill="#FDB863"/>
<path id="CakePaper" d="M115.063 65.1709C114.805 64.2338 114.174 63.3981 113.273 62.801C112.373 62.204 111.256 61.8812 110.107 61.8857C107.854 61.9353 105.839 63.2827 103.626 62.9877C101.788 62.7428 100.345 61.3998 98.4962 61.6048C96.8035 61.7926 95.8934 63.1776 94.6295 63.9227H91.3873C90.1251 63.0908 89.5048 61.4055 87.7543 60.933C85.1172 60.2212 83.0016 62.7122 80.2398 63.1529C78.6411 63.3015 77.0259 63.0433 75.6051 62.412C74.2143 61.7797 72.7043 61.3517 71.1407 61.1466C70.4527 61.06 69.7496 61.1384 69.1126 61.3726C68.4756 61.6068 67.9309 61.9872 67.5414 62.4698C67.6273 61.7649 66.5331 61.0737 65.422 61.0292C64.1808 61.0672 62.9735 61.3786 61.9218 61.9319C60.8662 62.485 59.6455 62.7773 58.4002 62.7752C55.6412 62.574 54.2882 59.8752 51.5139 59.8458C48.0218 59.8089 46.6247 63.9733 43.1714 63.6183C41.3756 63.4337 40.4066 62.0687 38.8056 61.4849C37.1065 61.0478 35.2924 61.0329 33.5835 61.4422L25.416 62.7222C23.022 63.2756 20.4969 63.2964 18.0905 62.7824C16.3386 62.2518 14.637 61.1026 12.8305 61.54C11.2571 61.9209 10.489 63.3963 8.82299 63.473C7.7586 63.3604 6.73304 63.0666 5.8095 62.6096C4.94579 62.3535 4.01087 62.317 3.12241 62.5046C2.23396 62.6922 1.43167 63.0956 0.816401 63.664C-0.0979758 66.7826 -0.246146 70.0242 0.381063 73.1922C0.356225 73.8675 0.420165 74.543 0.571549 75.2066L8.78623 102.727C9.75206 106.948 12.2451 110 17.3784 110H97.2204C99.7089 110 102.12 109.274 104.038 107.946C105.956 106.619 107.261 104.774 107.73 102.727L115.944 75.2066C115.961 75.1353 115.971 75.0645 115.985 74.9934C116.18 71.6997 115.87 68.3987 115.063 65.1709Z" fill="#CCF9E6"/>
<path id="Vector_2" opacity="0.2" d="M17.4442 63.0997L19.0405 80.4711C19.5726 86.2616 18.785 91.9716 19.3172 97.7621C19.6169 101.023 21.2363 104.365 21.536 107.626C21.5712 108.01 22.2905 108.013 22.255 107.626L20.6586 90.255L19.0623 72.8837L18.1632 63.0998C18.128 62.7161 17.4088 62.7128 17.4443 63.0998L17.4442 63.0997Z" fill="black"/>
<path id="Vector_3" opacity="0.2" d="M31.3099 63.7875L31.932 80.9056L32.554 98.0236L32.9033 107.634C32.9174 108.02 33.6363 108.022 33.6222 107.634L33.0002 90.5157L32.3781 73.3976L32.0289 63.7875C32.0148 63.4011 31.2958 63.3994 31.3099 63.7875Z" fill="black"/>
<path id="Vector_4" opacity="0.2" d="M44.7428 64.8144L44.5537 81.3578L44.3656 97.8009L44.259 107.125C44.2621 107.203 44.3014 107.277 44.3684 107.332C44.4355 107.386 44.5251 107.416 44.6184 107.416C44.7117 107.416 44.8014 107.386 44.8684 107.332C44.9355 107.277 44.9747 107.203 44.9779 107.125L45.167 90.582L45.355 74.1389L45.4617 64.8144C45.4586 64.7364 45.4193 64.6624 45.3523 64.6081C45.2852 64.5538 45.1956 64.5234 45.1023 64.5234C45.009 64.5234 44.9193 64.5538 44.8523 64.6081C44.7852 64.6624 44.7459 64.7364 44.7428 64.8144Z" fill="black"/>
<path id="Vector_5" opacity="0.2" d="M54.8912 64.3084L55.2847 81.0561L55.6757 97.7035L55.8972 107.13C55.9005 107.208 55.9398 107.282 56.0069 107.336C56.0739 107.391 56.1634 107.421 56.2567 107.421C56.3499 107.421 56.4395 107.391 56.5066 107.336C56.5736 107.282 56.6129 107.208 56.6161 107.13L56.2227 90.3827L55.8316 73.7353L55.6101 64.3084C55.607 64.2303 55.5678 64.1563 55.5007 64.102C55.4336 64.0477 55.344 64.0174 55.2507 64.0174C55.1574 64.0174 55.0678 64.0477 55.0007 64.102C54.9336 64.1563 54.8944 64.2303 54.8912 64.3084Z" fill="black"/>
<path id="Vector_6" opacity="0.2" d="M69.6803 63.6207L70.1302 80.8151L70.5799 98.0093L70.8318 107.634C70.8349 107.712 70.8741 107.786 70.9412 107.841C71.0083 107.895 71.0979 107.925 71.1912 107.925C71.2845 107.925 71.3741 107.895 71.4412 107.841C71.5083 107.786 71.5475 107.712 71.5507 107.634L71.1008 90.4398L70.6511 73.2456L70.3992 63.6207C70.3961 63.5427 70.3568 63.4687 70.2897 63.4144C70.2227 63.3601 70.133 63.3297 70.0397 63.3297C69.9464 63.3297 69.8568 63.3601 69.7897 63.4144C69.7227 63.4687 69.6834 63.5427 69.6803 63.6207Z" fill="black"/>
<path id="Vector_7" opacity="0.2" d="M81.9575 64.142L83.5255 81.4667L85.0888 98.7415L85.97 108.477C86.0047 108.861 86.7239 108.864 86.6889 108.477L85.1209 91.1526L83.5576 73.8778L82.6765 64.142C82.6418 63.7582 81.9225 63.755 81.9575 64.142Z" fill="black"/>
<path id="Vector_8" opacity="0.2" d="M95.5996 66.1611L96.545 82.013C96.8601 87.2969 95.2582 92.5809 95.5733 97.8648L96.1041 106.766C96.1271 107.151 96.8462 107.154 96.8231 106.766C96.508 101.482 98.1099 96.198 97.7948 90.914L96.8494 75.0621L96.3186 66.1611C96.2956 65.7756 95.5765 65.7732 95.5996 66.1611Z" fill="black"/>
<path id="Vector_9" d="M53.9447 22.7311C55.4667 22.7311 56.7006 22.0125 56.7006 21.1262C56.7006 20.2398 55.4667 19.5212 53.9447 19.5212C52.4227 19.5212 51.189 20.2398 51.189 21.1262C51.189 22.0125 52.4227 22.7311 53.9447 22.7311Z" fill="#E6E6E6"/>
<path id="Vector_10" d="M71.4382 26.3422C72.9602 26.3422 74.194 25.6237 74.194 24.7373C74.194 23.8509 72.9602 23.1323 71.4382 23.1323C69.9162 23.1323 68.6824 23.8509 68.6824 24.7373C68.6824 25.6237 69.9162 26.3422 71.4382 26.3422Z" fill="#3F3D56"/>
<path id="Vector_11" d="M46.9951 34.1663C48.5171 34.1663 49.751 33.4477 49.751 32.5613C49.751 31.675 48.5171 30.9564 46.9951 30.9564C45.4731 30.9564 44.2393 31.675 44.2393 32.5613C44.2393 33.4477 45.4731 34.1663 46.9951 34.1663Z" fill="#FF6584"/>
<path id="Vector_12" d="M69.7836 36.2814C70.7455 36.2814 71.5253 35.8273 71.5253 35.2671C71.5253 34.7069 70.7455 34.2528 69.7836 34.2528C68.8217 34.2528 68.0419 34.7069 68.0419 35.2671C68.0419 35.8273 68.8217 36.2814 69.7836 36.2814Z" fill="#E6E6E6"/>
<path id="Vector_13" d="M80.8393 38.5638C81.8012 38.5638 82.5809 38.1097 82.5809 37.5495C82.5809 36.9893 81.8012 36.5352 80.8393 36.5352C79.8774 36.5352 79.0976 36.9893 79.0976 37.5495C79.0976 38.1097 79.8774 38.5638 80.8393 38.5638Z" fill="#3F3D56"/>
<path id="Vector_14" d="M65.3915 43.5085C66.3534 43.5085 67.1332 43.0544 67.1332 42.4942C67.1332 41.934 66.3534 41.4799 65.3915 41.4799C64.4296 41.4799 63.6498 41.934 63.6498 42.4942C63.6498 43.0544 64.4296 43.5085 65.3915 43.5085Z" fill="#FF6584"/>
<path id="Vector_15" d="M86.0789 41.899C87.0408 41.899 87.8205 41.4449 87.8205 40.8847C87.8205 40.3245 87.0408 39.8704 86.0789 39.8704C85.117 39.8704 84.3372 40.3245 84.3372 40.8847C84.3372 41.4449 85.117 41.899 86.0789 41.899Z" fill="#E6E6E6"/>
<path id="Vector_16" d="M97.1349 44.1812C98.0968 44.1812 98.8766 43.7271 98.8766 43.1669C98.8766 42.6067 98.0968 42.1526 97.1349 42.1526C96.173 42.1526 95.3932 42.6067 95.3932 43.1669C95.3932 43.7271 96.173 44.1812 97.1349 44.1812Z" fill="#3F3D56"/>
<path id="Vector_17" d="M81.6868 49.126C82.6487 49.126 83.4284 48.6719 83.4284 48.1117C83.4284 47.5515 82.6487 47.0974 81.6868 47.0974C80.7249 47.0974 79.9451 47.5515 79.9451 48.1117C79.9451 48.6719 80.7249 49.126 81.6868 49.126Z" fill="#FF6584"/>
<path id="Vector_18" d="M41.1839 36.5485C41.3152 35.7507 40.8842 35.0421 40.2214 34.9656C39.5585 34.8891 38.9147 35.4738 38.7834 36.2716C38.6521 37.0693 39.083 37.778 39.7459 37.8545C40.4088 37.9309 41.0526 37.3462 41.1839 36.5485Z" fill="#E6E6E6"/>
<path id="Vector_19" d="M36.9742 45.4061C37.1055 44.6083 36.6745 43.8997 36.0116 43.8232C35.3488 43.7467 34.705 44.3314 34.5737 45.1292C34.4424 45.9269 34.8733 46.6356 35.5362 46.7121C36.1991 46.7885 36.8429 46.2038 36.9742 45.4061Z" fill="#3F3D56"/>
<path id="Vector_20" d="M33.2317 31.9196C33.363 31.1219 32.932 30.4132 32.2691 30.3367C31.6063 30.2603 30.9625 30.845 30.8312 31.6427C30.6999 32.4405 31.1308 33.1491 31.7937 33.2256C32.4566 33.3021 33.1004 32.7174 33.2317 31.9196Z" fill="#FF6584"/>
<path id="Vector_21" d="M60.1151 31.7337C60.2464 30.936 59.8155 30.2272 59.1526 30.1507C58.4897 30.0743 57.8459 30.6591 57.7146 31.4568C57.5833 32.2546 58.0142 32.9632 58.6771 33.0397C59.34 33.1162 59.9838 32.5315 60.1151 31.7337Z" fill="#E6E6E6"/>
<path id="Vector_22" d="M55.9054 40.5913C56.0367 39.7935 55.6058 39.0848 54.9429 39.0083C54.28 38.9318 53.6362 39.5166 53.5049 40.3144C53.3736 41.1121 53.8046 41.8208 54.4675 41.8972C55.1303 41.9737 55.7742 41.389 55.9054 40.5913Z" fill="#3F3D56"/>
<path id="Vector_23" d="M52.1629 27.1048C52.2942 26.3071 51.8632 25.5984 51.2004 25.5219C50.5375 25.4455 49.8937 26.0302 49.7624 26.8279C49.6311 27.6257 50.062 28.3343 50.7249 28.4108C51.3878 28.4872 52.0316 27.9025 52.1629 27.1048Z" fill="#FF6584"/>
<path id="Vector_24" d="M65.2441 21.9308C65.3753 21.1331 64.9444 20.4244 64.2815 20.348C63.6186 20.2715 62.9748 20.8562 62.8436 21.654C62.7123 22.4517 63.1432 23.1604 63.8061 23.2368C64.469 23.3133 65.1128 22.7286 65.2441 21.9308Z" fill="#3F3D56"/>
</g>
</svg>
